<svg xmlns="http://www.w3.org/2000/svg" width="500" height="500" viewBox="150 150 500 500">
  <defs>
    <style>
      .cls-1 {
        fill: #fff;
      }

      .cls-2 {
        fill: #361e98;
      }

      .cls-2, .cls-4, .cls-5 {
        fill-rule: evenodd;
      }

      .cls-3 {
        font-size: 416.667px;
      }

      .cls-3, .cls-4, .cls-6 {
        fill: #c9ae39;
      }

      .cls-3, .cls-6 {
        text-anchor: middle;
        font-family: Arial;
        font-weight: 700;
      }

      .cls-5 {
        fill: #a07800;
      }

      .cls-6 {
        font-size: 354.167px;
      }
    </style>
  </defs>
  <circle class="cls-1" cx="399.5" cy="399.5" r="237.5"/>
  <path class="cls-2" d="M266.372,521.156c30.94-25.81,74.393-195.338,128.108-334.708,6.446,0.861,6.021,0,11.178.431,79.927,217.228,93.875,306.173,132.55,334.133H447.644c46.409-40-25.667-142.686-65.631-284.207-67.466,192.279-101.722,261.84-54.883,284.638C318.536,521.013,278.4,521.156,266.372,521.156Z"/>
  <path id="Shape_2_copy_2" data-name="Shape 2 copy 2" class="cls-4" d="M453.376,429.481C450.8,288.39,301.86,315.5,295,265.128c-9.716,20.593-21.5,44.2-31.461,66.925-3.4,35.781,162.228,17.706,189.7,98.575"/>
  <path id="Shape_2_copy" data-name="Shape 2 copy" class="cls-5" d="M450.223,426.324c0.04-153.19-167.861-99.015-187.795-148.4C257.861,301.342,251.967,328.352,247.7,354c5.758,37.213,123.933-16.408,202.95,71.893"/>
  <path class="cls-2" d="M468.135,451.862C433.758,235.924,267.076,343.806,234.847,299.5c1.289,24.519-.716,51.807,1.433,78.476,15.04,35.7,155.795-42.255,232.285,76.038"/>
  <text id="LAND" class="cls-6" transform="translate(315.377 367.36) scale(0.124 0.143)"><tspan x="0">LAND</tspan></text>
</svg>
