<?xml version="1.0" encoding="UTF-8" standalone="no"?>
<!-- Created with Inkscape (http://www.inkscape.org/) -->

<svg
   width="1080"
   height="1080"
   viewBox="0 0 1080 1080"
   version="1.1"
   id="svg5"
   xmlns="http://www.w3.org/2000/svg"
>
  <defs
     id="defs2">
    <clipPath
       id="clip0_470_6932">
      <rect
         width="315"
         height="300"
         fill="white"
         transform="translate(346 40)"
         id="rect235" />
    </clipPath>
  </defs>
  <g id="layer1">
    <g
       style="fill:none"
       id="g359"
       transform="matrix(2.2665093,0,0,2.3535419,-594.92788,48.231625)">
      <g
         clip-path="url(#clip0_470_6932)"
         id="g231"
         transform="translate(-3.5884369,21.144213)">
        <g
           opacity="0.41"
           id="g13">
          <path
             d="m 660.849,229.205 c 0.295,-5.056 0.158,-10.127 -0.411,-15.16 -2.675,-23.62 -14.793,-45.897 -32.638,-61.612 -6.364,-5.602 -13.607,-10.628 -17.749,-18.026 -6.975,-12.465 -6.447,-26.788 -15.088,-39.0821 -8.767,-12.4399 -21.194,-21.8394 -35.552,-26.8913 -42.473,-14.7003 -101.932,9.2563 -96.576,60.4124 0,0.186 0.041,0.453 0.062,0.789 0.161,2.51 -0.187,5.027 -1.026,7.399 -0.838,2.372 -2.148,4.549 -3.85,6.401 -1.703,1.852 -3.764,3.34 -6.058,4.374 -2.293,1.033 -4.773,1.592 -7.288,1.641 -39.181,0.926 -72.909,31.129 -80.131,69.388 -4.67,24.608 2.936,51.575 20.938,69.004 13.435,12.993 31.465,20.131 49.502,25.033 36.17,9.833 74.232,11.896 111.527,8.139 34.907,-3.524 71.729,-13.555 94.306,-40.405 12.042,-14.344 18.942,-32.713 20.032,-51.404 z"
             fill="#e1e2fe"
             id="path11" />
        </g>
        <g
           opacity="0.31"
           id="g17">
          <path
             d="m 490.378,57.1258 c 0.803,-4.9682 -2.575,-9.6465 -7.544,-10.4494 -4.969,-0.8029 -9.649,2.5737 -10.452,7.5419 -0.803,4.9681 2.575,9.6464 7.544,10.4493 4.969,0.8029 9.649,-2.5737 10.452,-7.5418 z"
             fill="#e1e2fe"
             id="path15" />
        </g>
        <g
           opacity="0.31"
           id="g21">
          <path
             d="m 604.558,54.8168 c 2.598,0 4.704,-2.1059 4.704,-4.7036 0,-2.5977 -2.106,-4.7035 -4.704,-4.7035 -2.598,0 -4.705,2.1058 -4.705,4.7035 0,2.5977 2.107,4.7036 4.705,4.7036 z"
             fill="#e1e2fe"
             id="path19" />
        </g>
        <g
           opacity="0.31"
           id="g25">
          <path
             d="m 444.618,77.5984 c 0.842,-3.3767 -1.213,-6.7965 -4.59,-7.6384 -3.378,-0.8419 -6.799,1.213 -7.641,4.5896 -0.842,3.3767 1.214,6.7965 4.591,7.6384 3.378,0.8419 6.798,-1.213 7.64,-4.5896 z"
             fill="#e1e2fe"
             id="path23" />
        </g>
        <g
           opacity="0.31"
           id="g29">
          <path
             d="m 365.827,318.978 c 7.927,0 14.354,-6.425 14.354,-14.351 0,-7.926 -6.427,-14.351 -14.354,-14.351 -7.928,0 -14.354,6.425 -14.354,14.351 0,7.926 6.426,14.351 14.354,14.351 z"
             fill="#e1e2fe"
             id="path27" />
        </g>
        <path
           opacity="0.47"
           d="m 656.94,80.7757 c 0.974,-1.8942 1.564,-3.9618 1.738,-6.0844 0.174,-2.1226 -0.072,-4.2587 -0.724,-6.2861 -0.652,-2.0275 -1.698,-3.9065 -3.077,-5.5298 -1.379,-1.6233 -3.064,-2.959 -4.96,-3.9308 -7.969,-4.1139 -23.283,-3.7917 -27.37,4.1756 -4.088,7.9673 8.174,14.8101 13.174,22.2357 6.975,10.3328 17.132,3.3528 21.219,-4.5802 z"
           fill="#ecf1f7"
           id="path31" />
        <path
           opacity="0.47"
           d="m 622.094,325.622 c 2.768,1.787 6.133,2.402 9.355,1.708 3.222,-0.693 6.036,-2.637 7.825,-5.404 3.723,-5.766 4.656,-17.464 -1.112,-21.187 -5.767,-3.723 -11.905,5.115 -17.92,8.358 -8.463,4.539 -3.909,12.802 1.852,16.525 z"
           fill="#e1e2fe"
           id="path33" />
        <path
           opacity="0.47"
           d="m 386.751,44.1824 c -3.047,-2.827 -7.092,-4.3283 -11.246,-4.174 -4.154,0.1543 -8.077,1.9516 -10.906,4.9967 -5.891,6.3423 -9.601,20.6587 -3.271,26.5485 6.33,5.8897 15.911,-3.73 24.134,-6.4383 11.46,-3.7779 7.626,-15.0432 1.289,-20.9329 z"
           fill="#e1e2fe"
           id="path35" />
        <path
           opacity="0.47"
           d="m 351.788,112.631 c -5.642,12.41 -7.217,26.286 -4.499,39.644 3.189,15.551 12.873,27.502 9.513,44.088 -2.058,10.099 -2.558,19.465 -3.594,29.483 -2.119,20.508 11.227,38.595 27.748,48.359 13.435,7.933 29.181,10.908 44.626,10.703 13.901,-0.192 27.775,-2.743 41.244,-6.212 12.983,-3.326 25.67,-7.707 39.277,-6.322 11.316,1.145 21.507,6.041 32.048,9.688 25.162,8.708 55.633,9.935 78.642,-3.318 12.207,-7.162 21.805,-18.037 27.394,-31.038 5.589,-13 6.876,-27.446 3.673,-41.23 -2.819,-12.438 -7.544,-24.985 -6.104,-37.944 1.029,-9.037 5.164,-17.758 4.41,-26.816 -0.508,-6.02 -3.155,-11.656 -6.399,-16.771 C 627.93,106.33 608.103,93.8715 587.138,87.0013 567.407,80.5424 547.053,75.8594 526.512,77.4021 484.033,80.6316 475.372,73.919 431.967,64.601 c -28.023,-5.9926 -59.371,15.3723 -75.762,40.118 -1.671,2.521 -3.148,5.166 -4.417,7.912 z"
           fill="#e1e2fe"
           id="path37" />
        <path
           opacity="0.81"
           d="m 381.011,131.76 c -0.871,9.798 2.434,19.884 -0.329,29.6 -3.306,11.622 -12.88,20.323 -16.789,31.732 -5.768,16.853 -5.487,35.743 1.515,52.164 3.375,7.92 8.313,15.277 15.047,20.364 10.377,7.844 24.004,9.558 36.78,8.564 19.038,-1.481 39.133,-9.723 58.294,-7.474 10.569,1.241 13.792,12.671 19.244,20.213 6.202,8.437 14.403,15.201 23.866,19.685 17.111,8.228 37.651,8.996 55.14,1.543 18.674,-7.947 34.976,-27.364 33.879,-49.319 -0.494,-10.161 -4.561,-20.247 -2.682,-30.23 2.366,-12.527 11.81,-23.943 18.647,-34.146 7.63,-11.45 12.123,-24.701 13.031,-38.43 0,-0.151 0,-0.309 0.034,-0.467 0.635,-11.518 -2.554,-22.923 -9.072,-32.442 -6.517,-9.519 -15.998,-16.619 -26.967,-20.195 l -47.918,-15.77 c -48.638,-15.9757 -97.214,-15.4341 -141.908,8.0221 -9.677,5.0739 -25.423,20.1989 -28.667,30.6279 -0.596,1.939 -0.98,3.937 -1.145,5.958 z"
           fill="#e1e2fe"
           id="path39" />
        <path
           opacity="0.58"
           d="m 652.921,289.269 c 1.705,0 3.086,-1.382 3.086,-3.086 0,-1.704 -1.381,-3.085 -3.086,-3.085 -1.704,0 -3.086,1.381 -3.086,3.085 0,1.704 1.382,3.086 3.086,3.086 z"
           fill="#3e479b"
           id="path41" />
        <path
           opacity="0.58"
           d="m 510.355,48.7968 c 1.704,0 3.086,-1.3814 3.086,-3.0854 0,-1.704 -1.382,-3.0854 -3.086,-3.0854 -1.705,0 -3.086,1.3814 -3.086,3.0854 0,1.704 1.381,3.0854 3.086,3.0854 z"
           fill="#3e479b"
           id="path43" />
        <path
           opacity="0.58"
           d="m 398.862,317.723 c 1.705,0 3.087,-1.381 3.087,-3.085 0,-1.704 -1.382,-3.086 -3.087,-3.086 -1.704,0 -3.086,1.382 -3.086,3.086 0,1.704 1.382,3.085 3.086,3.085 z"
           fill="#3e479b"
           id="path45" />
        <path
           opacity="0.58"
           d="m 593.653,330.01 c 1.326,0 2.401,-1.074 2.401,-2.4 0,-1.325 -1.075,-2.4 -2.401,-2.4 -1.325,0 -2.4,1.075 -2.4,2.4 0,1.326 1.075,2.4 2.4,2.4 z"
           fill="#ef929c"
           id="path47" />
        <path
           opacity="0.58"
           d="m 385.242,99.2879 c 0.568,0 1.029,-0.4605 1.029,-1.0285 0,-0.568 -0.461,-1.0284 -1.029,-1.0284 -0.568,0 -1.028,0.4604 -1.028,1.0284 0,0.568 0.46,1.0285 1.028,1.0285 z"
           fill="#3e479b"
           id="path49" />
        <path
           opacity="0.58"
           d="m 604.373,67.5837 c -0.155,0.7155 -0.518,1.3692 -1.044,1.8784 -0.526,0.5093 -1.191,0.8513 -1.911,0.9828 -0.72,0.1315 -1.463,0.0466 -2.135,-0.2439 -0.672,-0.2905 -1.243,-0.7737 -1.641,-1.3884 -0.397,-0.6147 -0.603,-1.3334 -0.592,-2.0653 0.011,-0.7319 0.238,-1.4441 0.654,-2.0467 0.416,-0.6026 1,-1.0684 1.681,-1.3388 0.68,-0.2703 1.426,-0.3329 2.141,-0.18 0.477,0.1018 0.928,0.2964 1.329,0.5728 0.401,0.2764 0.743,0.6292 1.008,1.038 0.264,0.4089 0.445,0.8659 0.533,1.3448 0.087,0.4789 0.079,0.9704 -0.023,1.4463 z"
           fill="#ef929c"
           id="path51" />
        <path
           opacity="0.58"
           d="m 406.317,50.5521 c -0.059,0.2815 -0.201,0.5391 -0.407,0.7402 -0.205,0.201 -0.466,0.3364 -0.749,0.3891 -0.283,0.0527 -0.575,0.0203 -0.84,-0.0932 -0.264,-0.1135 -0.489,-0.3028 -0.646,-0.5441 -0.157,-0.2413 -0.238,-0.5237 -0.234,-0.8114 0.004,-0.2876 0.093,-0.5677 0.256,-0.8047 0.163,-0.2369 0.393,-0.4201 0.661,-0.5264 0.267,-0.1063 0.56,-0.1308 0.841,-0.0705 0.187,0.0391 0.364,0.1147 0.521,0.2225 0.158,0.1078 0.292,0.2456 0.396,0.4056 0.104,0.1599 0.175,0.3388 0.21,0.5264 0.034,0.1876 0.031,0.3801 -0.009,0.5665 z"
           fill="#ef929c"
           id="path53" />
        <path
           opacity="0.58"
           d="m 637.957,44.4359 c -0.052,0.2386 -0.173,0.4565 -0.348,0.6262 -0.176,0.1697 -0.398,0.2836 -0.638,0.3272 -0.24,0.0437 -0.488,0.0152 -0.712,-0.0819 -0.224,-0.097 -0.414,-0.2583 -0.546,-0.4635 -0.133,-0.2051 -0.201,-0.4448 -0.197,-0.6888 0.004,-0.2441 0.08,-0.4814 0.219,-0.6822 0.139,-0.2007 0.334,-0.3557 0.561,-0.4455 0.227,-0.0897 0.476,-0.1102 0.714,-0.0588 0.32,0.0707 0.598,0.2644 0.775,0.5392 0.178,0.2747 0.239,0.6082 0.172,0.9281 z"
           fill="#3e479b"
           id="path55" />
        <path
           opacity="0.58"
           d="m 376.628,339.019 c -0.05,0.239 -0.169,0.458 -0.344,0.629 -0.174,0.171 -0.396,0.286 -0.636,0.331 -0.24,0.045 -0.488,0.018 -0.712,-0.077 -0.225,-0.096 -0.416,-0.257 -0.55,-0.461 -0.133,-0.205 -0.203,-0.444 -0.2,-0.688 0.002,-0.244 0.078,-0.482 0.216,-0.684 0.137,-0.201 0.332,-0.357 0.559,-0.448 0.227,-0.091 0.475,-0.113 0.714,-0.062 0.32,0.067 0.6,0.259 0.779,0.533 0.179,0.274 0.241,0.607 0.174,0.927 z"
           fill="#3e479b"
           id="path57" />
        <g
           opacity="0.66"
           id="g65">
          <path
             d="m 465.53,154.654 -5.486,-0.411 c -0.399,-4.026 -1.665,-7.919 -3.711,-11.409 l 4.15,-3.566 c 0.514,-0.424 0.939,-0.947 1.249,-1.538 0.31,-0.591 0.499,-1.237 0.556,-1.902 0.058,-0.665 -0.018,-1.334 -0.223,-1.969 -0.204,-0.635 -0.534,-1.223 -0.968,-1.729 -0.434,-0.506 -0.965,-0.921 -1.562,-1.22 -0.597,-0.299 -1.247,-0.475 -1.913,-0.52 -0.665,-0.045 -1.333,0.044 -1.964,0.26 -0.631,0.217 -1.213,0.557 -1.711,1.001 l -4.156,3.565 c -3.139,-2.558 -6.793,-4.408 -10.713,-5.423 l 0.419,-5.486 c 0.05,-0.657 -0.029,-1.318 -0.234,-1.944 -0.205,-0.627 -0.532,-1.207 -0.961,-1.708 -0.429,-0.5 -0.953,-0.911 -1.541,-1.209 -0.588,-0.298 -1.229,-0.478 -1.887,-0.528 v 0 c -0.657,-0.05 -1.318,0.029 -1.945,0.234 -0.627,0.205 -1.207,0.531 -1.708,0.96 -0.5,0.429 -0.911,0.953 -1.209,1.541 -0.298,0.588 -0.478,1.229 -0.528,1.886 l -0.412,5.486 c -4.029,0.407 -7.922,1.682 -11.412,3.736 l -3.566,-4.155 c -0.429,-0.5 -0.953,-0.911 -1.542,-1.208 -0.588,-0.298 -1.229,-0.477 -1.887,-0.527 -1.328,-0.101 -2.641,0.33 -3.652,1.197 -1.01,0.868 -1.635,2.101 -1.735,3.428 -0.101,1.328 0.329,2.641 1.197,3.651 l 3.566,4.114 c -2.563,3.155 -4.411,6.828 -5.418,10.765 l -5.486,-0.418 c -1.328,-0.098 -2.641,0.333 -3.652,1.201 -1.01,0.867 -1.635,2.1 -1.739,3.427 v 0 c -0.051,0.66 0.029,1.323 0.235,1.952 0.206,0.628 0.535,1.21 0.967,1.711 0.433,0.501 0.96,0.911 1.551,1.208 0.592,0.296 1.237,0.472 1.897,0.518 l 5.487,0.418 c 0.409,4.028 1.684,7.92 3.737,11.41 l -4.156,3.558 c -1.01,0.868 -1.635,2.101 -1.736,3.428 -0.101,1.328 0.33,2.641 1.198,3.652 0.867,1.01 2.101,1.634 3.429,1.735 1.328,0.101 2.641,-0.33 3.652,-1.197 l 4.156,-3.559 c 3.135,2.559 6.787,4.409 10.705,5.424 l -0.411,5.485 c -0.051,0.657 0.029,1.317 0.234,1.944 0.205,0.626 0.531,1.206 0.961,1.705 0.429,0.5 0.953,0.911 1.541,1.208 0.588,0.297 1.229,0.476 1.886,0.525 0.657,0.051 1.318,-0.029 1.944,-0.234 0.627,-0.205 1.206,-0.531 1.706,-0.96 0.501,-0.429 0.911,-0.953 1.208,-1.541 0.298,-0.588 0.476,-1.229 0.526,-1.886 l 0.418,-5.485 c 4.029,-0.41 7.922,-1.684 11.412,-3.737 l 3.566,4.155 c 0.425,0.515 0.948,0.939 1.539,1.249 0.591,0.31 1.238,0.499 1.902,0.557 0.665,0.057 1.335,-0.019 1.97,-0.224 0.635,-0.204 1.223,-0.533 1.729,-0.967 0.507,-0.435 0.921,-0.966 1.22,-1.562 0.299,-0.597 0.476,-1.247 0.521,-1.912 0.044,-0.666 -0.044,-1.334 -0.261,-1.965 -0.216,-0.631 -0.556,-1.212 -1,-1.71 l -3.567,-4.155 c 2.559,-3.138 4.409,-6.791 5.425,-10.71 l 5.487,0.418 c 0.657,0.051 1.317,-0.029 1.944,-0.234 0.626,-0.205 1.206,-0.531 1.706,-0.96 0.5,-0.43 0.91,-0.953 1.208,-1.541 0.297,-0.588 0.476,-1.229 0.525,-1.886 v 0 c 0.055,-0.664 -0.024,-1.332 -0.231,-1.965 -0.206,-0.633 -0.537,-1.219 -0.972,-1.723 -0.436,-0.504 -0.967,-0.917 -1.563,-1.214 -0.597,-0.296 -1.246,-0.471 -1.911,-0.515 z m -35.12,22.86 c -4.034,-0.308 -7.885,-1.804 -11.068,-4.3 -3.182,-2.496 -5.553,-5.879 -6.812,-9.722 -1.26,-3.844 -1.351,-7.974 -0.262,-11.868 1.089,-3.895 3.309,-7.38 6.378,-10.013 3.07,-2.634 6.852,-4.298 10.868,-4.783 4.016,-0.484 8.085,0.232 11.693,2.06 3.609,1.828 6.594,4.684 8.578,8.208 1.985,3.524 2.879,7.558 2.571,11.59 -0.414,5.406 -2.958,10.426 -7.074,13.957 -4.115,3.531 -9.465,5.283 -14.872,4.871 z"
             fill="#ffffff"
             id="path59" />
          <path
             d="m 582.145,308.528 c -0.888,0 -1.753,-0.284 -2.469,-0.809 -0.717,-0.525 -1.247,-1.265 -1.515,-2.111 l -0.981,-3.1 c -2.519,0.261 -5.065,0.042 -7.503,-0.644 l -1.495,2.88 c -0.511,0.983 -1.392,1.723 -2.449,2.057 -1.057,0.334 -2.204,0.236 -3.188,-0.275 -0.488,-0.252 -0.922,-0.598 -1.276,-1.017 -0.355,-0.42 -0.623,-0.906 -0.789,-1.429 -0.166,-0.524 -0.227,-1.075 -0.18,-1.622 0.047,-0.548 0.202,-1.08 0.455,-1.568 l 1.495,-2.879 c -1.961,-1.6 -3.603,-3.554 -4.842,-5.76 l -3.1,0.981 c -0.524,0.164 -1.076,0.224 -1.624,0.175 -0.548,-0.048 -1.08,-0.205 -1.568,-0.459 -0.487,-0.255 -0.919,-0.603 -1.272,-1.025 -0.352,-0.422 -0.618,-0.909 -0.782,-1.434 -0.166,-0.525 -0.226,-1.077 -0.178,-1.624 0.048,-0.548 0.204,-1.081 0.459,-1.569 0.255,-0.487 0.604,-0.919 1.026,-1.271 0.423,-0.353 0.911,-0.618 1.436,-0.781 l 3.093,-0.981 c -0.258,-2.519 -0.037,-5.064 0.652,-7.501 l -2.888,-1.495 c -0.985,-0.511 -1.726,-1.392 -2.061,-2.449 -0.335,-1.058 -0.236,-2.205 0.275,-3.19 0.511,-0.985 1.392,-1.726 2.45,-2.061 1.058,-0.335 2.206,-0.236 3.191,0.275 l 2.887,1.495 c 1.598,-1.965 3.552,-3.609 5.761,-4.848 l -0.981,-3.092 c -0.176,-0.527 -0.246,-1.083 -0.205,-1.636 0.041,-0.554 0.192,-1.094 0.444,-1.589 0.251,-0.494 0.599,-0.934 1.023,-1.293 0.423,-0.359 0.914,-0.63 1.443,-0.797 0.529,-0.168 1.087,-0.228 1.64,-0.178 0.553,0.05 1.09,0.21 1.581,0.469 0.49,0.26 0.924,0.615 1.276,1.044 0.352,0.43 0.615,0.925 0.774,1.457 l 0.981,3.092 c 2.519,-0.26 5.065,-0.041 7.502,0.644 l 1.496,-2.879 c 0.511,-0.985 1.392,-1.726 2.45,-2.061 1.058,-0.335 2.205,-0.237 3.19,0.274 0.985,0.511 1.727,1.393 2.062,2.45 0.335,1.058 0.236,2.205 -0.275,3.19 l -1.502,2.88 c 1.965,1.599 3.61,3.556 4.849,5.766 l 3.1,-0.98 c 1.051,-0.314 2.184,-0.202 3.154,0.312 0.97,0.513 1.699,1.388 2.03,2.434 0.331,1.046 0.238,2.18 -0.26,3.158 -0.498,0.978 -1.36,1.721 -2.401,2.07 l -3.1,0.98 c 0.261,2.516 0.042,5.059 -0.644,7.494 l 2.88,1.502 c 0.985,0.51 1.727,1.391 2.062,2.447 0.336,1.057 0.238,2.204 -0.272,3.189 -0.513,0.984 -1.395,1.724 -2.453,2.058 -1.058,0.334 -2.206,0.235 -3.191,-0.275 l -2.88,-1.495 c -1.596,1.966 -3.551,3.611 -5.761,4.847 l 0.98,3.093 c 0.197,0.627 0.243,1.292 0.136,1.94 -0.107,0.649 -0.366,1.263 -0.754,1.793 -0.388,0.531 -0.896,0.962 -1.482,1.261 -0.586,0.298 -1.234,0.455 -1.891,0.457 z m -3.998,-7.542 1.324,4.183 c 0.249,0.678 0.751,1.235 1.4,1.553 0.65,0.319 1.397,0.375 2.087,0.157 0.689,-0.218 1.268,-0.694 1.616,-1.328 0.349,-0.633 0.439,-1.377 0.253,-2.076 l -1.324,-4.182 0.508,-0.268 c 2.41,-1.264 4.516,-3.037 6.172,-5.197 l 0.35,-0.452 3.895,2.022 c 0.66,0.325 1.422,0.378 2.12,0.148 0.699,-0.23 1.28,-0.724 1.618,-1.378 0.339,-0.653 0.407,-1.412 0.192,-2.116 -0.215,-0.703 -0.698,-1.294 -1.344,-1.645 l -3.896,-2.023 0.172,-0.542 c 0.812,-2.599 1.046,-5.344 0.686,-8.042 l -0.069,-0.569 4.177,-1.324 c 0.711,-0.224 1.304,-0.722 1.648,-1.384 0.344,-0.661 0.411,-1.432 0.186,-2.143 -0.224,-0.711 -0.722,-1.304 -1.384,-1.648 -0.662,-0.344 -1.433,-0.411 -2.144,-0.187 l -4.184,1.324 -0.267,-0.508 c -1.263,-2.408 -3.035,-4.514 -5.192,-6.171 l -0.459,-0.349 2.023,-3.895 c 0.344,-0.662 0.41,-1.433 0.185,-2.144 -0.111,-0.352 -0.291,-0.679 -0.529,-0.961 -0.237,-0.283 -0.528,-0.516 -0.856,-0.686 -0.662,-0.344 -1.434,-0.411 -2.145,-0.186 -0.711,0.225 -1.304,0.724 -1.648,1.386 l -2.016,3.894 -0.549,-0.171 c -2.601,-0.806 -5.345,-1.04 -8.044,-0.686 l -0.57,0.075 -1.323,-4.182 c -0.226,-0.711 -0.725,-1.303 -1.387,-1.647 -0.662,-0.343 -1.434,-0.409 -2.145,-0.184 -0.711,0.226 -1.304,0.724 -1.647,1.387 -0.344,0.662 -0.41,1.433 -0.184,2.144 l 1.33,4.176 -0.507,0.267 c -2.409,1.267 -4.515,3.04 -6.173,5.198 l -0.349,0.452 -3.896,-2.016 c -0.327,-0.169 -0.685,-0.273 -1.052,-0.305 -0.368,-0.031 -0.738,0.01 -1.089,0.121 -0.352,0.112 -0.678,0.291 -0.96,0.529 -0.282,0.237 -0.515,0.528 -0.684,0.855 -0.17,0.327 -0.274,0.685 -0.305,1.052 -0.032,0.368 0.009,0.738 0.121,1.089 0.111,0.352 0.291,0.678 0.528,0.96 0.238,0.282 0.528,0.514 0.856,0.684 l 3.888,2.057 -0.171,0.548 c -0.806,2.598 -1.04,5.34 -0.686,8.036 l 0.075,0.569 -4.183,1.324 c -0.711,0.225 -1.304,0.724 -1.647,1.386 -0.343,0.662 -0.41,1.434 -0.184,2.145 0.225,0.711 0.724,1.303 1.387,1.646 0.662,0.344 1.434,0.41 2.145,0.185 l 4.183,-1.324 0.268,0.508 c 1.264,2.408 3.035,4.513 5.191,6.17 l 0.453,0.35 -2.044,3.908 c -0.187,0.329 -0.306,0.692 -0.35,1.068 -0.043,0.375 -0.011,0.756 0.096,1.119 0.107,0.363 0.287,0.7 0.527,0.992 0.241,0.292 0.538,0.532 0.873,0.707 0.336,0.174 0.703,0.279 1.081,0.309 0.377,0.029 0.756,-0.018 1.115,-0.139 0.358,-0.121 0.689,-0.313 0.971,-0.564 0.283,-0.252 0.512,-0.558 0.673,-0.9 l 2.023,-3.894 0.549,0.171 c 2.6,0.809 5.345,1.043 8.044,0.686 z m -3.017,-3.826 c -3.781,-0.01 -7.419,-1.447 -10.186,-4.024 -2.767,-2.576 -4.459,-6.102 -4.738,-9.872 -0.278,-3.769 0.877,-7.505 3.234,-10.461 2.358,-2.955 5.745,-4.911 9.483,-5.477 3.739,-0.567 7.553,0.299 10.681,2.423 3.127,2.124 5.337,5.351 6.188,9.034 0.851,3.683 0.279,7.552 -1.6,10.832 -1.879,3.28 -4.928,5.73 -8.536,6.86 -1.463,0.469 -2.99,0.707 -4.526,0.706 z m 0,-28.502 c -1.397,10e-4 -2.784,0.216 -4.115,0.637 -3.231,1.031 -5.954,3.243 -7.625,6.194 -1.671,2.95 -2.168,6.423 -1.39,9.723 0.778,3.3 2.772,6.186 5.585,8.08 2.813,1.895 6.237,2.659 9.589,2.139 3.351,-0.519 6.383,-2.283 8.49,-4.94 2.108,-2.657 3.135,-6.011 2.877,-9.392 -0.258,-3.381 -1.783,-6.54 -4.269,-8.846 -2.486,-2.307 -5.751,-3.59 -9.142,-3.595 z"
             fill="#ffffff"
             id="path61" />
          <path
             d="m 618.185,282.933 c -0.26,0 -0.519,-0.021 -0.775,-0.062 -1.414,-0.205 -2.688,-0.963 -3.544,-2.107 -0.855,-1.145 -1.221,-2.581 -1.017,-3.995 l 0.686,-4.505 c -3.291,-1.178 -6.319,-2.988 -8.915,-5.327 l -3.656,2.742 c -0.567,0.423 -1.211,0.73 -1.897,0.904 -0.686,0.173 -1.399,0.21 -2.099,0.108 -0.7,-0.102 -1.372,-0.34 -1.98,-0.702 -0.608,-0.362 -1.138,-0.84 -1.561,-1.407 -0.423,-0.567 -0.73,-1.211 -0.903,-1.897 -0.174,-0.685 -0.211,-1.398 -0.109,-2.098 0.102,-0.699 0.34,-1.372 0.702,-1.98 0.362,-0.607 0.84,-1.137 1.407,-1.56 l 3.649,-2.743 c -1.524,-3.156 -2.414,-6.58 -2.62,-10.079 l -4.513,-0.685 c -1.411,-0.209 -2.683,-0.968 -3.536,-2.112 -0.854,-1.143 -1.219,-2.578 -1.017,-3.991 0.101,-0.699 0.34,-1.372 0.702,-1.98 0.361,-0.607 0.839,-1.138 1.406,-1.56 0.567,-0.423 1.212,-0.73 1.897,-0.904 0.686,-0.173 1.399,-0.21 2.098,-0.108 l 4.513,0.651 c 1.176,-3.29 2.984,-6.318 5.322,-8.914 l -2.743,-3.647 c -0.855,-1.144 -1.221,-2.581 -1.016,-3.994 0.204,-1.413 0.962,-2.687 2.106,-3.542 1.144,-0.854 2.581,-1.219 3.994,-1.015 1.414,0.204 2.688,0.962 3.543,2.106 l 2.743,3.654 c 3.164,-1.505 6.591,-2.376 10.089,-2.564 l 0.686,-4.505 c 0.101,-0.7 0.34,-1.372 0.702,-1.98 0.362,-0.607 0.839,-1.137 1.406,-1.56 0.567,-0.423 1.212,-0.73 1.897,-0.904 0.686,-0.173 1.398,-0.21 2.098,-0.109 0.7,0.102 1.373,0.341 1.98,0.702 0.608,0.362 1.138,0.84 1.561,1.407 0.423,0.566 0.73,1.211 0.904,1.896 0.174,0.685 0.211,1.398 0.109,2.098 l -0.686,4.504 c 3.302,1.177 6.342,2.987 8.95,5.328 l 3.649,-2.743 c 0.567,-0.422 1.211,-0.729 1.897,-0.903 0.685,-0.174 1.398,-0.211 2.098,-0.109 0.7,0.102 1.373,0.341 1.981,0.703 0.607,0.362 1.138,0.84 1.561,1.406 0.422,0.567 0.73,1.212 0.903,1.897 0.174,0.686 0.211,1.398 0.109,2.098 -0.102,0.7 -0.341,1.373 -0.703,1.98 -0.362,0.608 -0.84,1.138 -1.407,1.561 l -3.648,2.742 c 1.497,3.162 2.362,6.586 2.544,10.079 l 4.513,0.686 c 0.7,0.102 1.373,0.34 1.98,0.702 0.608,0.362 1.138,0.84 1.561,1.406 0.423,0.567 0.73,1.211 0.904,1.897 0.173,0.685 0.21,1.398 0.109,2.097 -0.102,0.7 -0.341,1.373 -0.703,1.98 -0.361,0.608 -0.839,1.138 -1.406,1.56 -0.567,0.423 -1.211,0.73 -1.897,0.904 -0.685,0.174 -1.398,0.211 -2.098,0.109 l -4.513,-0.651 c -1.173,3.29 -2.981,6.319 -5.322,8.913 l 2.744,3.648 c 0.638,0.853 1.009,1.876 1.065,2.94 0.056,1.064 -0.205,2.121 -0.75,3.036 -0.545,0.916 -1.349,1.649 -2.311,2.107 -0.962,0.458 -2.039,0.621 -3.093,0.467 -0.7,-0.099 -1.373,-0.337 -1.981,-0.698 -0.607,-0.361 -1.137,-0.84 -1.558,-1.407 l -2.743,-3.655 c -3.163,1.505 -6.59,2.377 -10.088,2.565 l -0.652,4.504 c -0.187,1.277 -0.825,2.444 -1.799,3.291 -0.974,0.847 -2.219,1.316 -3.509,1.324 z m -13.531,-17.772 0.418,0.391 c 2.694,2.524 5.905,4.433 9.409,5.595 l 0.549,0.185 -0.823,5.636 c -0.098,0.532 -0.088,1.078 0.03,1.606 0.117,0.527 0.341,1.026 0.656,1.465 0.315,0.44 0.716,0.811 1.178,1.092 0.462,0.281 0.976,0.466 1.512,0.544 0.535,0.077 1.08,0.046 1.603,-0.092 0.523,-0.138 1.013,-0.381 1.44,-0.713 0.427,-0.332 0.783,-0.746 1.045,-1.219 0.263,-0.473 0.428,-0.994 0.485,-1.531 l 0.816,-5.636 h 0.576 c 3.69,-0.117 7.31,-1.034 10.609,-2.688 l 0.515,-0.261 3.429,4.567 c 0.637,0.851 1.587,1.415 2.64,1.568 1.052,0.153 2.123,-0.117 2.977,-0.752 0.422,-0.315 0.778,-0.711 1.048,-1.163 0.27,-0.453 0.448,-0.955 0.524,-1.476 0.075,-0.522 0.048,-1.053 -0.082,-1.564 -0.13,-0.51 -0.359,-0.991 -0.674,-1.413 l -3.429,-4.566 0.391,-0.419 c 2.527,-2.692 4.439,-5.902 5.603,-9.407 l 0.178,-0.541 5.644,0.816 c 0.522,0.075 1.053,0.047 1.564,-0.082 0.51,-0.13 0.991,-0.359 1.413,-0.674 0.422,-0.315 0.778,-0.71 1.047,-1.163 0.27,-0.453 0.447,-0.954 0.523,-1.475 0.076,-0.522 0.048,-1.053 -0.082,-1.563 -0.129,-0.511 -0.358,-0.991 -0.674,-1.413 -0.315,-0.422 -0.71,-0.778 -1.163,-1.048 -0.453,-0.269 -0.954,-0.447 -1.476,-0.522 l -5.637,-0.823 v -0.569 c -0.115,-3.692 -1.035,-7.314 -2.695,-10.614 l -0.254,-0.507 4.568,-3.429 c 0.81,-0.652 1.336,-1.592 1.467,-2.624 0.131,-1.032 -0.143,-2.074 -0.764,-2.908 -0.622,-0.834 -1.543,-1.394 -2.569,-1.563 -1.027,-0.169 -2.079,0.067 -2.935,0.657 l -4.568,3.428 -0.418,-0.39 c -2.694,-2.525 -5.904,-4.434 -9.409,-5.595 l -0.542,-0.186 0.816,-5.636 c 0.098,-0.531 0.088,-1.078 -0.029,-1.605 -0.118,-0.528 -0.341,-1.027 -0.657,-1.466 -0.315,-0.44 -0.715,-0.811 -1.178,-1.092 -0.462,-0.281 -0.976,-0.466 -1.511,-0.544 -0.536,-0.077 -1.081,-0.046 -1.604,0.092 -0.523,0.139 -1.013,0.381 -1.44,0.713 -0.427,0.332 -0.782,0.747 -1.045,1.219 -0.263,0.473 -0.428,0.994 -0.485,1.532 l -0.884,5.615 h -0.576 c -3.69,0.117 -7.31,1.034 -10.61,2.688 l -0.514,0.26 -3.429,-4.566 c -0.637,-0.853 -1.586,-1.418 -2.64,-1.571 -1.053,-0.153 -2.124,0.118 -2.977,0.755 -0.853,0.636 -1.418,1.586 -1.571,2.639 -0.153,1.053 0.118,2.124 0.755,2.976 l 3.429,4.567 -0.391,0.418 c -2.528,2.693 -4.44,5.903 -5.603,9.407 l -0.178,0.542 -5.645,-0.816 c -0.521,-0.076 -1.052,-0.048 -1.563,0.082 -0.511,0.129 -0.991,0.358 -1.413,0.673 -0.423,0.316 -0.779,0.711 -1.048,1.164 -0.269,0.452 -0.447,0.954 -0.523,1.475 -0.151,1.053 0.122,2.122 0.758,2.974 0.637,0.852 1.585,1.417 2.637,1.572 l 5.638,0.823 v 0.569 c 0.116,3.691 1.036,7.313 2.695,10.614 l 0.254,0.507 -4.568,3.428 c -0.453,0.303 -0.841,0.695 -1.138,1.152 -0.297,0.458 -0.498,0.971 -0.59,1.508 -0.093,0.537 -0.075,1.088 0.052,1.618 0.127,0.531 0.361,1.029 0.687,1.466 0.327,0.437 0.738,0.803 1.211,1.076 0.472,0.273 0.995,0.447 1.536,0.511 0.542,0.065 1.091,0.018 1.614,-0.137 0.523,-0.154 1.009,-0.414 1.429,-0.762 z m 18.03,1.371 c -4.709,0.002 -9.265,-1.672 -12.852,-4.723 -3.587,-3.05 -5.97,-7.278 -6.722,-11.926 -0.753,-4.647 0.174,-9.411 2.615,-13.437 2.441,-4.026 6.236,-7.052 10.705,-8.535 4.469,-1.484 9.321,-1.328 13.685,0.44 4.365,1.767 7.958,5.031 10.135,9.205 2.177,4.175 2.796,8.988 1.746,13.578 -1.05,4.59 -3.7,8.655 -7.475,11.469 -3.424,2.562 -7.588,3.943 -11.865,3.936 z m -0.062,-38.287 c -2.921,0.008 -5.799,0.708 -8.397,2.043 -2.598,1.336 -4.842,3.269 -6.547,5.64 -1.705,2.372 -2.823,5.114 -3.262,8.001 -0.439,2.888 -0.187,5.838 0.737,8.609 0.923,2.771 2.491,5.283 4.575,7.33 2.083,2.047 4.623,3.571 7.41,4.445 2.787,0.875 5.742,1.076 8.622,0.587 2.88,-0.489 5.603,-1.655 7.945,-3.401 v 0 c 2.925,-2.183 5.137,-5.185 6.356,-8.625 1.219,-3.441 1.391,-7.165 0.493,-10.703 -0.897,-3.538 -2.824,-6.73 -5.536,-9.173 -2.712,-2.444 -6.088,-4.028 -9.701,-4.554 -0.901,-0.129 -1.811,-0.193 -2.722,-0.192 z"
             fill="#ffffff"
             id="path63" />
        </g>
        <g
           opacity="0.81"
           id="g85">
          <path
             d="m 529.482,285.689 h -14.087 c -0.181,0 -0.356,-0.072 -0.485,-0.201 -0.128,-0.128 -0.2,-0.303 -0.2,-0.484 0,-0.182 0.072,-0.357 0.2,-0.485 0.129,-0.129 0.304,-0.201 0.485,-0.201 h 14.087 c 0.182,0 0.356,0.072 0.485,0.201 0.129,0.128 0.201,0.303 0.201,0.485 0,0.181 -0.072,0.356 -0.201,0.484 -0.129,0.129 -0.303,0.201 -0.485,0.201 z"
             fill="#ffffff"
             id="path67" />
          <path
             d="m 529.482,300.335 h -14.087 c -0.181,0 -0.356,-0.073 -0.485,-0.201 -0.128,-0.129 -0.2,-0.303 -0.2,-0.485 0,-0.182 0.072,-0.356 0.2,-0.485 0.129,-0.128 0.304,-0.201 0.485,-0.201 h 14.087 c 0.182,0 0.356,0.073 0.485,0.201 0.129,0.129 0.201,0.303 0.201,0.485 0,0.182 -0.072,0.356 -0.201,0.485 -0.129,0.128 -0.303,0.201 -0.485,0.201 z"
             fill="#ffffff"
             id="path69" />
          <path
             d="M 540.119,315.117 H 453.11 c -0.493,0 -0.966,-0.195 -1.314,-0.544 -0.349,-0.348 -0.545,-0.821 -0.545,-1.314 v -45.15 c 0,-0.493 0.196,-0.965 0.545,-1.314 0.348,-0.348 0.821,-0.544 1.314,-0.544 h 87.009 c 0.492,0.002 0.964,0.198 1.312,0.546 0.348,0.348 0.545,0.82 0.546,1.312 v 45.15 c 0,0.493 -0.195,0.966 -0.544,1.314 -0.348,0.349 -0.821,0.544 -1.314,0.544 z M 453.11,267.622 c -0.064,0 -0.127,0.013 -0.186,0.037 -0.059,0.025 -0.113,0.061 -0.158,0.106 -0.046,0.045 -0.081,0.099 -0.106,0.158 -0.024,0.059 -0.037,0.122 -0.037,0.186 v 45.15 c 0,0.064 0.013,0.127 0.037,0.187 0.025,0.059 0.06,0.112 0.106,0.157 0.045,0.046 0.099,0.082 0.158,0.106 0.059,0.024 0.122,0.037 0.186,0.037 h 87.009 c 0.129,0 0.253,-0.051 0.344,-0.143 0.092,-0.091 0.143,-0.215 0.143,-0.344 v -45.15 c 0,-0.129 -0.051,-0.253 -0.143,-0.344 -0.091,-0.091 -0.215,-0.143 -0.344,-0.143 z"
             fill="#ffffff"
             id="path71" />
          <path
             opacity="0.66"
             d="M 540.119,315.117 H 453.11 c -0.493,0 -0.966,-0.195 -1.314,-0.544 -0.349,-0.348 -0.545,-0.821 -0.545,-1.314 v -45.15 c 0,-0.493 0.196,-0.965 0.545,-1.314 0.348,-0.348 0.821,-0.544 1.314,-0.544 h 87.009 c 0.492,0.002 0.964,0.198 1.312,0.546 0.348,0.348 0.545,0.82 0.546,1.312 v 45.15 c 0,0.493 -0.195,0.966 -0.544,1.314 -0.348,0.349 -0.821,0.544 -1.314,0.544 z M 453.11,267.622 c -0.064,0 -0.127,0.013 -0.186,0.037 -0.059,0.025 -0.113,0.061 -0.158,0.106 -0.046,0.045 -0.081,0.099 -0.106,0.158 -0.024,0.059 -0.037,0.122 -0.037,0.186 v 45.15 c 0,0.064 0.013,0.127 0.037,0.187 0.025,0.059 0.06,0.112 0.106,0.157 0.045,0.046 0.099,0.082 0.158,0.106 0.059,0.024 0.122,0.037 0.186,0.037 h 87.009 c 0.129,0 0.253,-0.051 0.344,-0.143 0.092,-0.091 0.143,-0.215 0.143,-0.344 v -45.15 c 0,-0.129 -0.051,-0.253 -0.143,-0.344 -0.091,-0.091 -0.215,-0.143 -0.344,-0.143 z"
             fill="#ffffff"
             id="path73" />
          <path
             d="m 529.482,278.586 h -67.134 c -0.182,0 -0.356,-0.073 -0.485,-0.201 -0.129,-0.129 -0.201,-0.303 -0.201,-0.485 0,-0.182 0.072,-0.356 0.201,-0.485 0.129,-0.128 0.303,-0.201 0.485,-0.201 h 67.134 c 0.182,0 0.356,0.073 0.485,0.201 0.129,0.129 0.201,0.303 0.201,0.485 0,0.182 -0.072,0.356 -0.201,0.485 -0.129,0.128 -0.303,0.201 -0.485,0.201 z"
             fill="#ffffff"
             id="path75" />
          <path
             d="m 529.482,292.8 h -67.134 c -0.182,0 -0.356,-0.073 -0.485,-0.201 -0.129,-0.129 -0.201,-0.303 -0.201,-0.485 0,-0.182 0.072,-0.356 0.201,-0.485 0.129,-0.129 0.303,-0.201 0.485,-0.201 h 67.134 c 0.182,0 0.356,0.072 0.485,0.201 0.129,0.129 0.201,0.303 0.201,0.485 0,0.182 -0.072,0.356 -0.201,0.485 -0.129,0.128 -0.303,0.201 -0.485,0.201 z"
             fill="#ffffff"
             id="path77" />
          <path
             d="m 498.545,285.689 h -36.197 c -0.182,0 -0.356,-0.072 -0.485,-0.201 -0.129,-0.128 -0.201,-0.303 -0.201,-0.484 0,-0.182 0.072,-0.357 0.201,-0.485 0.129,-0.129 0.303,-0.201 0.485,-0.201 h 36.197 c 0.182,0 0.356,0.072 0.485,0.201 0.129,0.128 0.201,0.303 0.201,0.485 0,0.181 -0.072,0.356 -0.201,0.484 -0.129,0.129 -0.303,0.201 -0.485,0.201 z"
             fill="#ffffff"
             id="path79" />
          <path
             d="m 498.545,300.335 h -36.197 c -0.182,0 -0.356,-0.073 -0.485,-0.201 -0.129,-0.129 -0.201,-0.303 -0.201,-0.485 0,-0.182 0.072,-0.356 0.201,-0.485 0.129,-0.128 0.303,-0.201 0.485,-0.201 h 36.197 c 0.182,0 0.356,0.073 0.485,0.201 0.129,0.129 0.201,0.303 0.201,0.485 0,0.182 -0.072,0.356 -0.201,0.485 -0.129,0.128 -0.303,0.201 -0.485,0.201 z"
             fill="#ffffff"
             id="path81" />
          <path
             d="m 486.756,307.116 h -24.408 c -0.182,0 -0.356,-0.072 -0.485,-0.201 -0.129,-0.128 -0.201,-0.303 -0.201,-0.485 0,-0.182 0.072,-0.356 0.201,-0.485 0.129,-0.128 0.303,-0.2 0.485,-0.2 h 24.408 c 0.182,0 0.356,0.072 0.485,0.2 0.128,0.129 0.201,0.303 0.201,0.485 0,0.182 -0.073,0.357 -0.201,0.485 -0.129,0.129 -0.303,0.201 -0.485,0.201 z"
             fill="#ffffff"
             id="path83" />
        </g>
        <g
           opacity="0.81"
           id="g105">
          <path
             d="m 394.693,241.794 h -15.856 c -0.182,0 -0.357,-0.073 -0.485,-0.201 -0.129,-0.129 -0.201,-0.303 -0.201,-0.485 0,-0.182 0.072,-0.356 0.201,-0.485 0.128,-0.128 0.303,-0.201 0.485,-0.201 h 15.856 c 0.182,0 0.356,0.073 0.485,0.201 0.128,0.129 0.2,0.303 0.2,0.485 0,0.182 -0.072,0.356 -0.2,0.485 -0.129,0.128 -0.303,0.201 -0.485,0.201 z"
             fill="#ffffff"
             id="path87" />
          <path
             d="m 394.693,225.338 h -15.856 c -0.182,0 -0.357,-0.072 -0.485,-0.201 -0.129,-0.128 -0.201,-0.303 -0.201,-0.485 0,-0.181 0.072,-0.356 0.201,-0.484 0.128,-0.129 0.303,-0.201 0.485,-0.201 h 15.856 c 0.182,0 0.356,0.072 0.485,0.201 0.128,0.128 0.2,0.303 0.2,0.484 0,0.182 -0.072,0.357 -0.2,0.485 -0.129,0.129 -0.303,0.201 -0.485,0.201 z"
             fill="#ffffff"
             id="path89" />
          <path
             d="m 464.844,262.103 h -98.071 c -0.493,0 -0.965,-0.196 -1.314,-0.544 -0.349,-0.349 -0.544,-0.822 -0.544,-1.314 v -51.04 c 0,-0.493 0.195,-0.966 0.544,-1.314 0.349,-0.349 0.821,-0.544 1.314,-0.544 h 98.071 c 0.493,0.001 0.964,0.198 1.312,0.546 0.349,0.348 0.545,0.82 0.547,1.312 v 51.04 c -0.002,0.492 -0.198,0.964 -0.547,1.312 -0.348,0.348 -0.819,0.544 -1.312,0.546 z m -98.071,-53.385 c -0.129,0 -0.253,0.051 -0.344,0.143 -0.091,0.091 -0.143,0.215 -0.143,0.344 v 51.04 c 0,0.129 0.052,0.253 0.143,0.344 0.091,0.091 0.215,0.142 0.344,0.142 h 98.071 c 0.064,0 0.128,-0.012 0.187,-0.037 0.059,-0.024 0.112,-0.06 0.158,-0.105 0.045,-0.045 0.081,-0.099 0.105,-0.158 0.025,-0.059 0.037,-0.122 0.037,-0.186 v -51.04 c 0,-0.064 -0.012,-0.127 -0.037,-0.187 -0.024,-0.059 -0.06,-0.112 -0.105,-0.157 -0.046,-0.046 -0.099,-0.081 -0.158,-0.106 -0.059,-0.024 -0.123,-0.037 -0.187,-0.037 z"
             fill="#ffffff"
             id="path91" />
          <path
             opacity="0.66"
             d="m 464.844,262.103 h -98.071 c -0.493,0 -0.965,-0.196 -1.314,-0.544 -0.349,-0.349 -0.544,-0.822 -0.544,-1.314 v -51.04 c 0,-0.493 0.195,-0.966 0.544,-1.314 0.349,-0.349 0.821,-0.544 1.314,-0.544 h 98.071 c 0.493,0.001 0.964,0.198 1.312,0.546 0.349,0.348 0.545,0.82 0.547,1.312 v 51.04 c -0.002,0.492 -0.198,0.964 -0.547,1.312 -0.348,0.348 -0.819,0.544 -1.312,0.546 z m -98.071,-53.385 c -0.129,0 -0.253,0.051 -0.344,0.143 -0.091,0.091 -0.143,0.215 -0.143,0.344 v 51.04 c 0,0.129 0.052,0.253 0.143,0.344 0.091,0.091 0.215,0.142 0.344,0.142 h 98.071 c 0.064,0 0.128,-0.012 0.187,-0.037 0.059,-0.024 0.112,-0.06 0.158,-0.105 0.045,-0.045 0.081,-0.099 0.105,-0.158 0.025,-0.059 0.037,-0.122 0.037,-0.186 v -51.04 c 0,-0.064 -0.012,-0.127 -0.037,-0.187 -0.024,-0.059 -0.06,-0.112 -0.105,-0.157 -0.046,-0.046 -0.099,-0.081 -0.158,-0.106 -0.059,-0.024 -0.123,-0.037 -0.187,-0.037 z"
             fill="#ffffff"
             id="path93" />
          <path
             d="m 454.31,249.775 h -75.473 c -0.182,0 -0.357,-0.073 -0.485,-0.201 -0.129,-0.129 -0.201,-0.303 -0.201,-0.485 0,-0.182 0.072,-0.356 0.201,-0.485 0.128,-0.128 0.303,-0.201 0.485,-0.201 h 75.439 c 0.182,0 0.356,0.073 0.485,0.201 0.128,0.129 0.201,0.303 0.201,0.485 0,0.182 -0.073,0.356 -0.201,0.485 -0.129,0.128 -0.303,0.201 -0.485,0.201 z"
             fill="#ffffff"
             id="path95" />
          <path
             d="m 454.31,233.806 h -75.473 c -0.182,0 -0.357,-0.072 -0.485,-0.201 -0.129,-0.129 -0.201,-0.303 -0.201,-0.485 0,-0.182 0.072,-0.356 0.201,-0.485 0.128,-0.128 0.303,-0.2 0.485,-0.2 h 75.439 c 0.182,0 0.356,0.072 0.485,0.2 0.128,0.129 0.201,0.303 0.201,0.485 0,0.182 -0.073,0.356 -0.201,0.485 -0.129,0.129 -0.303,0.201 -0.485,0.201 z"
             fill="#ffffff"
             id="path97" />
          <path
             d="m 454.31,241.794 h -40.682 c -0.182,0 -0.356,-0.073 -0.485,-0.201 -0.129,-0.129 -0.201,-0.303 -0.201,-0.485 0,-0.182 0.072,-0.356 0.201,-0.485 0.129,-0.128 0.303,-0.201 0.485,-0.201 h 40.682 c 0.182,0 0.356,0.073 0.485,0.201 0.129,0.129 0.201,0.303 0.201,0.485 0,0.182 -0.072,0.356 -0.201,0.485 -0.129,0.128 -0.303,0.201 -0.485,0.201 z"
             fill="#ffffff"
             id="path99" />
          <path
             d="m 454.31,225.338 h -40.682 c -0.182,0 -0.356,-0.072 -0.485,-0.201 -0.129,-0.128 -0.201,-0.303 -0.201,-0.485 0,-0.181 0.072,-0.356 0.201,-0.484 0.129,-0.129 0.303,-0.201 0.485,-0.201 h 40.682 c 0.182,0 0.356,0.072 0.485,0.201 0.129,0.128 0.201,0.303 0.201,0.484 0,0.182 -0.072,0.357 -0.201,0.485 -0.129,0.129 -0.303,0.201 -0.485,0.201 z"
             fill="#ffffff"
             id="path101" />
          <path
             d="m 454.31,217.714 h -27.432 c -0.182,0 -0.357,-0.073 -0.485,-0.201 -0.129,-0.129 -0.201,-0.303 -0.201,-0.485 0,-0.182 0.072,-0.356 0.201,-0.485 0.128,-0.128 0.303,-0.201 0.485,-0.201 h 27.432 c 0.182,0 0.356,0.073 0.485,0.201 0.129,0.129 0.201,0.303 0.201,0.485 0,0.182 -0.072,0.356 -0.201,0.485 -0.129,0.128 -0.303,0.201 -0.485,0.201 z"
             fill="#ffffff"
             id="path103" />
        </g>
        <path
           opacity="0.14"
           d="m 564.16,141.427 -60.573,102.154 c -0.357,0.602 -0.158,1.38 0.445,1.738 l 75.046,44.478 c 0.603,0.357 1.381,0.158 1.739,-0.445 l 60.572,-102.153 c 0.357,-0.603 0.158,-1.381 -0.445,-1.738 l -75.046,-44.478 c -0.603,-0.358 -1.381,-0.159 -1.738,0.444 z"
           fill="#3e479b"
           id="path107" />
        <path
           d="m 562.209,137.333 -60.572,102.153 c -0.357,0.603 -0.158,1.381 0.445,1.738 l 75.046,44.479 c 0.603,0.357 1.381,0.158 1.738,-0.445 l 60.573,-102.154 c 0.357,-0.602 0.158,-1.38 -0.445,-1.738 l -75.046,-44.478 c -0.603,-0.357 -1.381,-0.158 -1.739,0.445 z"
           fill="#f7a9b4"
           id="path109" />
        <path
           opacity="0.14"
           d="m 598.687,284.462 -85.788,-15.818 c -0.331,-0.06 -0.625,-0.249 -0.816,-0.525 -0.192,-0.277 -0.266,-0.618 -0.206,-0.949 l 21.535,-116.787 c 0.029,-0.165 0.091,-0.322 0.182,-0.462 0.091,-0.141 0.208,-0.262 0.346,-0.357 0.137,-0.095 0.293,-0.162 0.456,-0.196 0.164,-0.035 0.333,-0.037 0.497,-0.007 l 85.788,15.818 c 0.332,0.062 0.625,0.252 0.817,0.53 0.191,0.278 0.265,0.62 0.205,0.951 l -21.534,116.787 c -0.031,0.164 -0.094,0.321 -0.185,0.46 -0.09,0.14 -0.208,0.261 -0.346,0.355 -0.137,0.094 -0.292,0.16 -0.455,0.195 -0.164,0.034 -0.332,0.036 -0.496,0.005 z"
           fill="#3e479b"
           id="path111" />
        <path
           d="m 531.782,145.845 -21.984,119.284 88.293,16.265 21.984,-119.284 z"
           fill="#ffffff"
           id="path113" />
        <path
           opacity="0.39"
           d="m 531.552,147.093 -21.524,116.788 c -0.127,0.689 0.329,1.351 1.018,1.478 l 85.798,15.805 c 0.689,0.127 1.35,-0.329 1.477,-1.018 l 21.524,-116.789 c 0.127,-0.689 -0.328,-1.35 -1.018,-1.477 L 533.03,146.075 c -0.69,-0.127 -1.351,0.329 -1.478,1.018 z"
           fill="#f7a9b4"
           id="path115" />
        <path
           d="m 606.739,176.177 h -0.131 l -21.472,-3.956 c -0.091,-0.017 -0.177,-0.05 -0.254,-0.1 -0.077,-0.049 -0.143,-0.113 -0.195,-0.188 -0.052,-0.076 -0.089,-0.16 -0.109,-0.25 -0.019,-0.089 -0.021,-0.181 -0.005,-0.271 0.016,-0.09 0.05,-0.176 0.1,-0.253 0.049,-0.077 0.113,-0.144 0.188,-0.196 0.075,-0.052 0.16,-0.089 0.25,-0.109 0.089,-0.019 0.181,-0.021 0.271,-0.005 l 21.48,3.963 c 0.09,0.009 0.178,0.034 0.258,0.076 0.08,0.042 0.151,0.1 0.209,0.169 0.058,0.069 0.102,0.149 0.129,0.236 0.027,0.086 0.036,0.177 0.028,0.267 -0.008,0.09 -0.034,0.177 -0.076,0.258 -0.042,0.08 -0.099,0.151 -0.168,0.209 -0.07,0.058 -0.15,0.101 -0.236,0.128 -0.087,0.027 -0.177,0.037 -0.267,0.029 z"
           fill="#ffffff"
           id="path117" />
        <path
           d="m 605.47,183.033 h -0.124 l -21.452,-3.97 c -0.09,-0.016 -0.176,-0.05 -0.253,-0.099 -0.077,-0.049 -0.143,-0.113 -0.196,-0.189 -0.052,-0.075 -0.089,-0.159 -0.108,-0.249 -0.02,-0.089 -0.021,-0.182 -0.005,-0.272 0.016,-0.09 0.05,-0.176 0.099,-0.253 0.05,-0.077 0.114,-0.143 0.189,-0.195 0.075,-0.052 0.16,-0.089 0.249,-0.109 0.09,-0.019 0.182,-0.021 0.272,-0.005 l 21.473,3.956 c 0.182,0.017 0.35,0.105 0.467,0.245 0.117,0.14 0.173,0.321 0.157,0.503 -0.016,0.182 -0.104,0.349 -0.245,0.466 -0.14,0.118 -0.321,0.174 -0.503,0.158 z"
           fill="#ffffff"
           id="path119" />
        <path
           d="m 604.098,190.48 h -0.123 l -21.452,-3.956 c -0.09,-0.017 -0.176,-0.051 -0.253,-0.101 -0.077,-0.05 -0.143,-0.115 -0.195,-0.19 -0.052,-0.075 -0.089,-0.16 -0.108,-0.25 -0.019,-0.089 -0.02,-0.182 -0.003,-0.272 0.016,-0.09 0.051,-0.176 0.1,-0.253 0.05,-0.076 0.115,-0.143 0.19,-0.195 0.076,-0.052 0.161,-0.088 0.25,-0.107 0.09,-0.019 0.182,-0.02 0.272,-0.004 l 21.446,3.956 c 0.09,0.009 0.177,0.034 0.257,0.076 0.081,0.042 0.152,0.1 0.21,0.169 0.057,0.069 0.101,0.149 0.128,0.236 0.027,0.086 0.037,0.177 0.029,0.267 -0.008,0.09 -0.034,0.177 -0.076,0.258 -0.042,0.08 -0.099,0.151 -0.169,0.209 -0.069,0.058 -0.149,0.101 -0.236,0.128 -0.086,0.027 -0.177,0.037 -0.267,0.029 z"
           fill="#ffffff"
           id="path121" />
        <path
           opacity="0.14"
           d="m 540.245,148.867 -7.292,39.568 c -0.137,0.745 0.356,1.46 1.101,1.597 l 36.798,6.779 c 0.745,0.137 1.46,-0.355 1.597,-1.1 l 7.293,-39.568 c 0.137,-0.745 -0.356,-1.46 -1.101,-1.597 l -36.798,-6.779 c -0.745,-0.137 -1.46,0.355 -1.598,1.1 z"
           fill="#3e479b"
           id="path123" />
        <path
           d="m 540.225,148.998 -6.905,37.464 c -0.137,0.745 0.355,1.46 1.1,1.598 l 35.086,6.463 c 0.745,0.137 1.46,-0.356 1.597,-1.1 l 6.905,-37.465 c 0.137,-0.744 -0.356,-1.459 -1.101,-1.597 l -35.085,-6.463 c -0.745,-0.137 -1.46,0.355 -1.597,1.1 z"
           fill="#599af2"
           id="path125" />
        <path
           opacity="0.07"
           d="m 577.372,159.509 -37.781,-6.96 0.686,-3.579 c 0.073,-0.343 0.275,-0.646 0.565,-0.845 0.289,-0.199 0.644,-0.279 0.991,-0.224 l 35.203,6.486 c 0.336,0.063 0.633,0.257 0.827,0.538 0.194,0.281 0.269,0.627 0.209,0.964 z"
           fill="#ecf1f7"
           id="path127" />
        <path
           d="m 550.166,171.179 c -0.271,-0.002 -0.542,-0.027 -0.809,-0.076 l -0.521,-0.096 c -1.336,-0.248 -2.518,-1.015 -3.29,-2.133 -0.771,-1.118 -1.068,-2.496 -0.825,-3.832 l 1.323,-7.158 c 0.022,-0.136 0.07,-0.266 0.142,-0.382 0.072,-0.117 0.167,-0.218 0.279,-0.298 0.112,-0.079 0.239,-0.135 0.373,-0.165 0.134,-0.03 0.273,-0.032 0.408,-0.008 0.135,0.025 0.264,0.077 0.379,0.152 0.114,0.075 0.213,0.173 0.29,0.287 0.076,0.114 0.129,0.242 0.155,0.376 0.027,0.135 0.026,0.274 -0.002,0.408 l -1.317,7.158 c -0.147,0.799 0.03,1.624 0.49,2.293 0.46,0.67 1.166,1.13 1.965,1.28 l 0.521,0.096 c 0.622,0.114 1.264,-0.024 1.785,-0.382 0.521,-0.359 0.878,-0.91 0.993,-1.531 l 3.34,-18.115 c 0.118,-0.642 -0.024,-1.305 -0.394,-1.842 -0.371,-0.538 -0.94,-0.906 -1.582,-1.024 l -0.891,-0.165 c -0.681,-0.124 -1.383,0.026 -1.954,0.418 -0.571,0.392 -0.963,0.993 -1.091,1.673 l -0.076,0.453 c -0.053,0.266 -0.208,0.502 -0.432,0.655 -0.224,0.154 -0.5,0.214 -0.768,0.168 -0.133,-0.024 -0.261,-0.074 -0.375,-0.148 -0.114,-0.073 -0.212,-0.168 -0.289,-0.28 -0.077,-0.111 -0.132,-0.237 -0.16,-0.369 -0.028,-0.133 -0.03,-0.27 -0.006,-0.403 l 0.083,-0.446 c 0.226,-1.216 0.926,-2.293 1.945,-2.995 1.02,-0.702 2.276,-0.971 3.493,-0.749 l 0.899,0.165 c 1.177,0.218 2.219,0.895 2.898,1.881 0.679,0.986 0.939,2.201 0.723,3.378 l -3.34,18.115 c -0.188,1.02 -0.726,1.943 -1.523,2.608 -0.797,0.665 -1.801,1.031 -2.839,1.033 z"
           fill="#3e479b"
           id="path129" />
        <path
           d="m 553.719,155.964 h -0.062 l -13.716,-2.523 c -0.09,-0.018 -0.169,-0.071 -0.22,-0.146 -0.051,-0.076 -0.071,-0.169 -0.055,-0.258 0.017,-0.089 0.068,-0.168 0.143,-0.22 0.074,-0.051 0.166,-0.071 0.255,-0.055 l 13.716,2.53 c 0.091,0.008 0.175,0.052 0.234,0.123 0.058,0.07 0.087,0.16 0.078,0.251 -0.008,0.091 -0.052,0.175 -0.122,0.233 -0.07,0.059 -0.16,0.087 -0.251,0.079 z"
           fill="#ffffff"
           id="path131" />
        <path
           d="m 595.649,226.819 h -0.123 l -65.619,-12.095 c -0.182,-0.033 -0.343,-0.136 -0.449,-0.288 -0.105,-0.152 -0.146,-0.339 -0.113,-0.521 0.033,-0.182 0.136,-0.343 0.288,-0.449 0.152,-0.105 0.339,-0.146 0.521,-0.113 l 65.625,12.095 c 0.182,0.017 0.35,0.106 0.466,0.247 0.117,0.14 0.172,0.322 0.155,0.504 -0.017,0.181 -0.106,0.349 -0.247,0.465 -0.141,0.117 -0.322,0.172 -0.504,0.155 z"
           fill="#ffffff"
           id="path133" />
        <path
           d="m 590.958,252.264 h -0.123 l -65.619,-12.088 c -0.089,-0.016 -0.175,-0.049 -0.251,-0.098 -0.076,-0.049 -0.142,-0.113 -0.194,-0.187 -0.052,-0.075 -0.088,-0.159 -0.107,-0.248 -0.019,-0.089 -0.02,-0.18 -0.003,-0.269 0.016,-0.089 0.05,-0.174 0.099,-0.25 0.05,-0.075 0.113,-0.14 0.188,-0.191 0.075,-0.051 0.158,-0.087 0.247,-0.106 0.088,-0.018 0.179,-0.019 0.268,-0.002 l 65.619,12.095 c 0.088,0.016 0.173,0.049 0.249,0.097 0.076,0.049 0.142,0.112 0.193,0.186 0.052,0.073 0.088,0.157 0.108,0.245 0.019,0.088 0.021,0.179 0.005,0.267 -0.032,0.156 -0.117,0.296 -0.241,0.397 -0.124,0.1 -0.279,0.153 -0.438,0.152 z"
           fill="#ffffff"
           id="path135" />
        <path
           d="m 558.704,233.162 h -0.123 l -31.019,-5.719 c -0.09,-0.016 -0.176,-0.05 -0.253,-0.099 -0.077,-0.05 -0.144,-0.114 -0.196,-0.189 -0.052,-0.075 -0.089,-0.16 -0.109,-0.249 -0.019,-0.089 -0.021,-0.182 -0.005,-0.272 0.017,-0.09 0.05,-0.176 0.1,-0.253 0.049,-0.077 0.113,-0.143 0.188,-0.195 0.076,-0.053 0.16,-0.09 0.25,-0.109 0.089,-0.019 0.181,-0.021 0.272,-0.005 l 31.019,5.718 c 0.09,0.008 0.177,0.034 0.258,0.076 0.08,0.042 0.151,0.099 0.209,0.169 0.058,0.069 0.101,0.149 0.128,0.236 0.027,0.086 0.037,0.177 0.029,0.267 -0.008,0.09 -0.034,0.177 -0.076,0.257 -0.042,0.081 -0.099,0.152 -0.169,0.21 -0.069,0.057 -0.149,0.101 -0.235,0.128 -0.087,0.027 -0.178,0.037 -0.268,0.029 z"
           fill="#ffffff"
           id="path137" />
        <path
           d="m 562.977,209.98 c -0.041,0.006 -0.083,0.006 -0.123,0 l -31.02,-5.712 c -0.089,-0.016 -0.173,-0.05 -0.249,-0.099 -0.076,-0.05 -0.141,-0.113 -0.192,-0.188 -0.051,-0.074 -0.086,-0.158 -0.105,-0.247 -0.018,-0.088 -0.019,-0.179 -0.002,-0.268 0.033,-0.178 0.135,-0.335 0.284,-0.438 0.149,-0.103 0.333,-0.142 0.511,-0.11 l 31.026,5.718 c 0.182,0.017 0.35,0.106 0.466,0.247 0.117,0.141 0.172,0.322 0.155,0.504 -0.017,0.182 -0.106,0.349 -0.247,0.465 -0.141,0.117 -0.322,0.172 -0.504,0.155 z"
           fill="#ffffff"
           id="path139" />
        <path
           d="m 593.324,239.442 h -0.123 l -29.559,-5.444 c -0.09,-0.016 -0.176,-0.05 -0.253,-0.099 -0.077,-0.05 -0.143,-0.114 -0.196,-0.189 -0.052,-0.075 -0.089,-0.16 -0.108,-0.249 -0.02,-0.09 -0.021,-0.182 -0.005,-0.272 0.016,-0.09 0.05,-0.176 0.099,-0.253 0.05,-0.077 0.114,-0.143 0.189,-0.196 0.075,-0.052 0.16,-0.089 0.249,-0.108 0.09,-0.02 0.182,-0.021 0.272,-0.005 l 29.559,5.444 c 0.181,0.016 0.349,0.104 0.466,0.244 0.118,0.14 0.174,0.321 0.158,0.503 -0.017,0.182 -0.105,0.35 -0.245,0.467 -0.14,0.117 -0.321,0.173 -0.503,0.157 z"
           fill="#ffffff"
           id="path141" />
        <path
           d="m 586.377,87.9062 h -36.478 c -1.262,0 -2.284,1.0223 -2.284,2.2833 v 12.1975 c 0,1.261 1.022,2.283 2.284,2.283 h 36.478 c 1.261,0 2.284,-1.022 2.284,-2.283 V 90.1895 c 0,-1.261 -1.023,-2.2833 -2.284,-2.2833 z"
           fill="#599af2"
           id="path143" />
        <path
           d="m 613.85,100.241 h -51.017 c -1.261,0 -2.284,1.022 -2.284,2.283 v 18.143 c 0,1.261 1.023,2.283 2.284,2.283 h 51.017 c 1.262,0 2.284,-1.022 2.284,-2.283 v -18.143 c 0,-1.261 -1.022,-2.283 -2.284,-2.283 z"
           fill="#f7a9b4"
           id="path145" />
        <path
           d="m 630.625,118.15 h -56.497 c -1.712,0 -3.1,1.388 -3.1,3.1 v 17.305 c 0,1.712 1.388,3.1 3.1,3.1 h 56.497 c 1.712,0 3.1,-1.388 3.1,-3.1 V 121.25 c 0,-1.712 -1.388,-3.1 -3.1,-3.1 z"
           fill="#ffffff"
           id="path147" />
        <path
           opacity="0.74"
           d="m 630.625,118.15 h -56.497 c -1.712,0 -3.1,1.388 -3.1,3.1 v 17.305 c 0,1.712 1.388,3.1 3.1,3.1 h 56.497 c 1.712,0 3.1,-1.388 3.1,-3.1 V 121.25 c 0,-1.712 -1.388,-3.1 -3.1,-3.1 z"
           fill="#6d6cd4"
           id="path149" />
        <path
           d="m 613.83,132.652 c -0.543,0 -1.073,-0.161 -1.524,-0.462 -0.451,-0.302 -0.803,-0.73 -1.011,-1.231 -0.207,-0.501 -0.261,-1.053 -0.156,-1.585 0.106,-0.532 0.367,-1.021 0.751,-1.404 0.384,-0.384 0.873,-0.645 1.405,-0.751 0.532,-0.106 1.083,-0.051 1.585,0.156 0.501,0.208 0.929,0.559 1.231,1.01 0.301,0.451 0.462,0.982 0.462,1.524 0,0.727 -0.289,1.425 -0.803,1.939 -0.515,0.515 -1.213,0.804 -1.94,0.804 z m 0,-4.759 c -0.407,0 -0.805,0.121 -1.143,0.347 -0.338,0.226 -0.602,0.547 -0.758,0.923 -0.156,0.376 -0.196,0.79 -0.117,1.189 0.079,0.399 0.275,0.765 0.563,1.053 0.288,0.287 0.654,0.483 1.054,0.563 0.399,0.079 0.812,0.038 1.188,-0.117 0.376,-0.156 0.698,-0.42 0.924,-0.758 0.226,-0.338 0.346,-0.736 0.346,-1.143 0,-0.545 -0.216,-1.068 -0.602,-1.454 -0.386,-0.386 -0.909,-0.603 -1.455,-0.603 z"
           fill="#ffffff"
           id="path151" />
        <path
           d="m 602.589,132.652 c -0.542,0 -1.073,-0.161 -1.524,-0.462 -0.451,-0.302 -0.802,-0.73 -1.01,-1.231 -0.208,-0.501 -0.262,-1.053 -0.156,-1.585 0.106,-0.532 0.367,-1.021 0.751,-1.404 0.383,-0.384 0.872,-0.645 1.404,-0.751 0.532,-0.106 1.084,-0.051 1.585,0.156 0.502,0.208 0.93,0.559 1.231,1.01 0.302,0.451 0.463,0.982 0.463,1.524 0,0.727 -0.289,1.425 -0.804,1.939 -0.514,0.515 -1.212,0.804 -1.94,0.804 z m 0,-4.759 c -0.406,0 -0.804,0.121 -1.143,0.347 -0.338,0.226 -0.602,0.547 -0.757,0.923 -0.156,0.376 -0.197,0.79 -0.117,1.189 0.079,0.399 0.275,0.765 0.563,1.053 0.287,0.287 0.654,0.483 1.053,0.563 0.399,0.079 0.813,0.038 1.189,-0.117 0.376,-0.156 0.697,-0.42 0.923,-0.758 0.226,-0.338 0.347,-0.736 0.347,-1.143 0,-0.545 -0.217,-1.068 -0.603,-1.454 -0.386,-0.386 -0.909,-0.603 -1.455,-0.603 z"
           fill="#ffffff"
           id="path153" />
        <path
           d="m 592.124,132.652 c -0.543,0 -1.073,-0.161 -1.524,-0.462 -0.451,-0.302 -0.803,-0.73 -1.01,-1.231 -0.208,-0.501 -0.262,-1.053 -0.157,-1.585 0.106,-0.532 0.368,-1.021 0.751,-1.404 0.384,-0.384 0.873,-0.645 1.405,-0.751 0.532,-0.106 1.084,-0.051 1.585,0.156 0.501,0.208 0.929,0.559 1.231,1.01 0.301,0.451 0.462,0.982 0.462,1.524 0,0.727 -0.289,1.425 -0.803,1.939 -0.515,0.515 -1.212,0.804 -1.94,0.804 z m 0,-4.759 c -0.407,0 -0.805,0.121 -1.143,0.347 -0.338,0.226 -0.602,0.547 -0.758,0.923 -0.156,0.376 -0.196,0.79 -0.117,1.189 0.079,0.399 0.275,0.765 0.563,1.053 0.288,0.287 0.654,0.483 1.054,0.563 0.399,0.079 0.812,0.038 1.188,-0.117 0.376,-0.156 0.698,-0.42 0.924,-0.758 0.226,-0.338 0.346,-0.736 0.346,-1.143 0,-0.545 -0.216,-1.068 -0.602,-1.454 -0.386,-0.386 -0.909,-0.603 -1.455,-0.603 z"
           fill="#ffffff"
           id="path155" />
        <path
           d="m 436.705,89.5518 h 87.524 c 0.845,0 1.657,0.3359 2.255,0.9338 0.598,0.5979 0.934,1.4088 0.934,2.2544 v 128.903 c 0,2.92 -1.161,5.721 -3.226,7.786 -2.066,2.065 -4.867,3.225 -7.788,3.225 h -60.756 c -3.082,0 -6.134,-0.607 -8.981,-1.786 -2.848,-1.179 -5.435,-2.907 -7.614,-5.086 -2.179,-2.179 -3.908,-4.765 -5.087,-7.612 -1.18,-2.847 -1.787,-5.898 -1.787,-8.979 V 94.0771 c 0,-0.5943 0.117,-1.1828 0.345,-1.7318 0.227,-0.549 0.561,-1.0479 0.981,-1.4681 0.42,-0.4202 0.919,-0.7536 1.468,-0.981 0.549,-0.2274 1.138,-0.3444 1.732,-0.3444 z"
           fill="#ffffff"
           id="path157" />
        <path
           opacity="0.39"
           d="m 433.283,89.5518 h 92.441 c 0.224,-9e-4 0.447,0.0426 0.654,0.1281 0.208,0.0855 0.397,0.2112 0.555,0.3699 0.159,0.1587 0.285,0.3473 0.37,0.5548 0.086,0.2076 0.129,0.43 0.128,0.6544 v 130.898 c 10e-4,1.379 -0.27,2.744 -0.797,4.018 -0.527,1.274 -1.301,2.432 -2.276,3.407 -0.975,0.974 -2.133,1.748 -3.407,2.275 -1.274,0.527 -2.64,0.798 -4.019,0.797 H 453.59 c -5.67,0 -11.108,-2.251 -15.118,-6.259 -4.01,-4.008 -6.264,-9.444 -6.265,-15.113 V 90.6625 c -10e-4,-0.2887 0.112,-0.5662 0.313,-0.7735 0.201,-0.2074 0.475,-0.3283 0.763,-0.3372 z"
           fill="#6d6cd4"
           id="path159" />
        <path
           opacity="0.39"
           d="m 441.39,89.5518 h 84.69 c 0.364,0 0.713,0.1444 0.97,0.4016 0.257,0.2572 0.402,0.606 0.402,0.9697 V 222.568 c 0,2.69 -1.069,5.269 -2.971,7.171 -1.902,1.902 -4.482,2.97 -7.172,2.97 h -55.654 c -5.575,0 -10.921,-2.214 -14.863,-6.155 -3.942,-3.941 -6.157,-9.287 -6.157,-14.86 V 90.306 c 0,-0.2001 0.08,-0.3919 0.221,-0.5333 0.142,-0.1415 0.333,-0.2209 0.534,-0.2209 z"
           fill="#3e479b"
           id="path161" />
        <path
           d="m 453.926,232.633 h 76.516 c 4.229,0 8.285,-1.679 11.275,-4.669 2.99,-2.989 4.67,-7.044 4.67,-11.272 v -6.054 h -77.38 v 6.054 c 0.006,4.082 -1.555,8.012 -4.361,10.978 -2.805,2.965 -6.642,4.742 -10.72,4.963 z"
           fill="#6161b5"
           id="path163" />
        <g
           opacity="0.28"
           id="g167">
          <path
             d="m 464.069,232.633 h 68.122 c 7.839,0 14.196,-7.137 14.196,-15.941 v -6.054 h -68.889 v 6.054 c 0,8.536 -5.946,15.489 -13.429,15.941 z"
             fill="#3e479b"
             id="path165" />
        </g>
        <path
           d="m 512.975,194.162 h -55.016 c -0.182,0 -0.357,-0.072 -0.485,-0.201 -0.129,-0.129 -0.201,-0.303 -0.201,-0.485 0,-0.182 0.072,-0.356 0.201,-0.485 0.128,-0.128 0.303,-0.2 0.485,-0.2 h 55.016 c 0.181,0 0.356,0.072 0.484,0.2 0.129,0.129 0.201,0.303 0.201,0.485 0,0.182 -0.072,0.356 -0.201,0.485 -0.128,0.129 -0.303,0.201 -0.484,0.201 z"
           fill="#ffffff"
           id="path169" />
        <path
           d="M 514.127,171.007 H 456.93 c -0.182,0 -0.356,-0.072 -0.485,-0.201 -0.129,-0.128 -0.201,-0.303 -0.201,-0.485 0,-0.181 0.072,-0.356 0.201,-0.484 0.129,-0.129 0.303,-0.201 0.485,-0.201 h 57.197 c 0.182,0 0.356,0.072 0.485,0.201 0.128,0.128 0.2,0.303 0.2,0.484 0,0.182 -0.072,0.357 -0.2,0.485 -0.129,0.129 -0.303,0.201 -0.485,0.201 z"
           fill="#ffffff"
           id="path171" />
        <path
           d="m 485.467,182.574 h -29.23 c -0.182,0 -0.356,-0.072 -0.485,-0.201 -0.128,-0.128 -0.2,-0.303 -0.2,-0.485 0,-0.182 0.072,-0.356 0.2,-0.485 0.129,-0.128 0.303,-0.2 0.485,-0.2 h 29.23 c 0.181,0 0.356,0.072 0.485,0.2 0.128,0.129 0.2,0.303 0.2,0.485 0,0.182 -0.072,0.357 -0.2,0.485 -0.129,0.129 -0.304,0.201 -0.485,0.201 z"
           fill="#ffffff"
           id="path173" />
        <path
           d="m 483.251,182.574 h -24.799 c -0.181,0 -0.356,-0.072 -0.485,-0.201 -0.128,-0.128 -0.2,-0.303 -0.2,-0.485 0,-0.182 0.072,-0.356 0.2,-0.485 0.129,-0.128 0.304,-0.2 0.485,-0.2 h 24.799 c 0.182,0 0.357,0.072 0.485,0.2 0.129,0.129 0.201,0.303 0.201,0.485 0,0.182 -0.072,0.357 -0.201,0.485 -0.128,0.129 -0.303,0.201 -0.485,0.201 z"
           fill="#ffffff"
           id="path175" />
        <path
           d="m 494.979,146.241 h -37.651 c -0.182,0 -0.357,-0.072 -0.485,-0.2 -0.129,-0.129 -0.201,-0.303 -0.201,-0.485 0,-0.182 0.072,-0.356 0.201,-0.485 0.128,-0.129 0.303,-0.201 0.485,-0.201 h 37.651 c 0.182,0 0.356,0.072 0.485,0.201 0.128,0.129 0.201,0.303 0.201,0.485 0,0.182 -0.073,0.356 -0.201,0.485 -0.129,0.128 -0.303,0.2 -0.485,0.2 z"
           fill="#ffffff"
           id="path177" />
        <path
           d="m 512.433,146.241 h -11.467 c -0.182,0 -0.356,-0.072 -0.485,-0.2 -0.129,-0.129 -0.201,-0.303 -0.201,-0.485 0,-0.182 0.072,-0.356 0.201,-0.485 0.129,-0.129 0.303,-0.201 0.485,-0.201 h 11.467 c 0.182,0 0.356,0.072 0.485,0.201 0.128,0.129 0.201,0.303 0.201,0.485 0,0.182 -0.073,0.356 -0.201,0.485 -0.129,0.128 -0.303,0.2 -0.485,0.2 z"
           fill="#ffffff"
           id="path179" />
        <path
           d="m 514.127,157.815 h -40.772 c -0.182,0 -0.356,-0.072 -0.485,-0.201 -0.128,-0.128 -0.201,-0.303 -0.201,-0.485 0,-0.181 0.073,-0.356 0.201,-0.484 0.129,-0.129 0.303,-0.201 0.485,-0.201 h 40.772 c 0.181,0 0.356,0.072 0.485,0.201 0.128,0.128 0.2,0.303 0.2,0.484 0,0.182 -0.072,0.357 -0.2,0.485 -0.129,0.129 -0.304,0.201 -0.485,0.201 z"
           fill="#ffffff"
           id="path181" />
        <path
           d="M 469.364,157.815 H 456.93 c -0.182,0 -0.356,-0.072 -0.485,-0.201 -0.129,-0.128 -0.201,-0.303 -0.201,-0.485 0,-0.181 0.072,-0.356 0.201,-0.484 0.129,-0.129 0.303,-0.201 0.485,-0.201 h 12.434 c 0.182,0 0.356,0.072 0.485,0.201 0.128,0.128 0.201,0.303 0.201,0.484 0,0.182 -0.073,0.357 -0.201,0.485 -0.129,0.129 -0.303,0.201 -0.485,0.201 z"
           fill="#ffffff"
           id="path183" />
        <path
           d="m 512.975,136.45 h -55.016 c -0.182,0 -0.357,-0.072 -0.485,-0.2 -0.129,-0.129 -0.201,-0.303 -0.201,-0.485 0,-0.182 0.072,-0.356 0.201,-0.485 0.128,-0.129 0.303,-0.201 0.485,-0.201 h 55.016 c 0.181,0 0.356,0.072 0.484,0.201 0.129,0.129 0.201,0.303 0.201,0.485 0,0.182 -0.072,0.356 -0.201,0.485 -0.128,0.128 -0.303,0.2 -0.484,0.2 z"
           fill="#ffffff"
           id="path185" />
        <path
           d="m 512.975,113.289 h -55.016 c -0.182,0 -0.357,-0.072 -0.485,-0.201 -0.129,-0.128 -0.201,-0.303 -0.201,-0.484 0,-0.182 0.072,-0.357 0.201,-0.485 0.128,-0.129 0.303,-0.201 0.485,-0.201 h 55.016 c 0.181,0 0.356,0.072 0.484,0.201 0.129,0.128 0.201,0.303 0.201,0.485 0,0.181 -0.072,0.356 -0.201,0.484 -0.128,0.129 -0.303,0.201 -0.484,0.201 z"
           fill="#ffffff"
           id="path187" />
        <path
           d="m 478.149,124.856 h -20.821 c -0.182,0 -0.357,-0.072 -0.485,-0.201 -0.129,-0.128 -0.201,-0.303 -0.201,-0.484 0,-0.182 0.072,-0.357 0.201,-0.485 0.128,-0.129 0.303,-0.201 0.485,-0.201 h 20.821 c 0.182,0 0.356,0.072 0.485,0.201 0.129,0.128 0.201,0.303 0.201,0.485 0,0.181 -0.072,0.356 -0.201,0.484 -0.129,0.129 -0.303,0.201 -0.485,0.201 z"
           fill="#ffffff"
           id="path189" />
        <path
           d="m 512.57,124.856 h -24.813 c -0.182,0 -0.356,-0.072 -0.485,-0.201 -0.128,-0.128 -0.201,-0.303 -0.201,-0.484 0,-0.182 0.073,-0.357 0.201,-0.485 0.129,-0.129 0.303,-0.201 0.485,-0.201 h 24.813 c 0.182,0 0.356,0.072 0.485,0.201 0.128,0.128 0.201,0.303 0.201,0.485 0,0.181 -0.073,0.356 -0.201,0.484 -0.129,0.129 -0.303,0.201 -0.485,0.201 z"
           fill="#ffffff"
           id="path191" />
        <path
           opacity="0.21"
           d="m 586.531,204.975 c 16.951,-16.947 16.951,-44.423 0,-61.37 -16.95,-16.947 -44.433,-16.947 -61.383,0 -16.951,16.947 -16.951,44.423 0,61.37 16.95,16.947 44.433,16.947 61.383,0 z"
           fill="#ffffff"
           id="path193" />
        <path
           opacity="0.76"
           d="m 521.828,177.411 c -0.727,0 -1.425,-0.289 -1.939,-0.803 -0.515,-0.514 -0.804,-1.212 -0.804,-1.939 0.011,-10.529 4.197,-20.623 11.641,-28.07 7.443,-7.447 17.537,-11.639 28.068,-11.657 0.727,0 1.425,0.289 1.939,0.803 0.515,0.515 0.804,1.212 0.804,1.94 0,0.727 -0.289,1.424 -0.804,1.939 -0.514,0.514 -1.212,0.803 -1.939,0.803 -9.071,0.018 -17.765,3.629 -24.179,10.041 -6.414,6.413 -10.025,15.105 -10.043,24.173 0.003,0.363 -0.065,0.722 -0.201,1.058 -0.137,0.336 -0.338,0.642 -0.593,0.899 -0.255,0.258 -0.559,0.462 -0.893,0.602 -0.335,0.139 -0.694,0.211 -1.057,0.211 z"
           fill="#ffffff"
           id="path195" />
        <path
           opacity="0.58"
           d="m 555.845,219.065 c -8.858,0.001 -17.517,-2.624 -24.883,-7.543 -7.365,-4.919 -13.106,-11.911 -16.497,-20.092 -3.39,-8.181 -4.278,-17.183 -2.551,-25.869 1.727,-8.686 5.992,-16.664 12.255,-22.926 6.262,-6.263 14.242,-10.527 22.929,-12.256 8.688,-1.728 17.692,-0.842 25.876,2.547 8.184,3.389 15.178,9.127 20.099,16.49 4.922,7.363 7.548,16.02 7.548,24.876 -0.013,11.869 -4.734,23.249 -13.128,31.642 -8.394,8.394 -19.776,13.116 -31.648,13.131 z m 0,-86.797 c -8.316,-0.001 -16.445,2.463 -23.359,7.081 -6.915,4.617 -12.304,11.182 -15.487,18.862 -3.183,7.68 -4.016,16.132 -2.394,24.286 1.622,8.153 5.626,15.643 11.506,21.521 5.88,5.879 13.371,9.882 21.527,11.504 8.155,1.621 16.609,0.788 24.291,-2.394 7.682,-3.182 14.248,-8.57 18.867,-15.483 4.619,-6.913 7.083,-15.04 7.082,-23.353 -0.015,-11.141 -4.448,-21.822 -12.327,-29.7 -7.88,-7.877 -18.563,-12.309 -29.706,-12.324 z"
           fill="#3e479b"
           id="path197" />
        <path
           d="m 595.738,205.386 c 0.066,-0.059 0.134,-0.114 0.206,-0.165 7.886,-10.194 11.596,-23.007 10.377,-35.836 -1.218,-12.83 -7.275,-24.715 -16.939,-33.244 -9.665,-8.528 -22.213,-13.06 -35.098,-12.675 -12.884,0.384 -25.14,5.656 -34.278,14.746 -9.139,9.089 -14.475,21.314 -14.926,34.194 -0.452,12.879 4.016,25.448 12.496,35.154 8.48,9.706 20.337,15.822 33.163,17.107 12.826,1.285 25.661,-2.358 35.898,-10.189 l 5.857,-5.863 z m -39.893,12.307 c -8.587,0.002 -16.981,-2.543 -24.121,-7.311 -7.14,-4.768 -12.705,-11.546 -15.992,-19.477 -3.286,-7.93 -4.147,-16.657 -2.473,-25.076 1.674,-8.42 5.808,-16.154 11.879,-22.225 6.071,-6.07 13.807,-10.204 22.228,-11.88 8.421,-1.675 17.15,-0.816 25.083,2.469 7.933,3.285 14.713,8.848 19.484,15.985 4.77,7.138 7.317,15.529 7.317,24.114 0,11.509 -4.573,22.548 -12.713,30.687 -8.14,8.139 -19.18,12.713 -30.692,12.714 z"
           fill="#3e479b"
           id="path199" />
        <path
           d="m 555.845,225.619 c -10.153,-0.005 -20.077,-3.02 -28.516,-8.663 -8.439,-5.644 -15.015,-13.662 -18.897,-23.041 -3.881,-9.38 -4.894,-19.699 -2.91,-29.654 1.984,-9.955 6.876,-19.098 14.057,-26.274 7.181,-7.175 16.329,-12.061 26.287,-14.039 9.958,-1.979 20.28,-0.961 29.659,2.925 9.38,3.886 17.396,10.465 23.036,18.905 5.64,8.44 8.651,18.363 8.651,28.513 0.033,11.351 -3.733,22.386 -10.699,31.348 l -0.13,0.131 c -0.047,0.03 -0.09,0.064 -0.13,0.102 l -9.142,9.133 c -8.952,6.916 -19.954,10.651 -31.266,10.614 z m 0,-101.277 c -6.611,-0.078 -13.172,1.157 -19.302,3.633 -6.129,2.475 -11.707,6.142 -16.409,10.789 -4.702,4.646 -8.435,10.179 -10.983,16.278 -2.548,6.099 -3.86,12.643 -3.86,19.253 0,6.609 1.312,13.153 3.86,19.252 2.548,6.099 6.281,11.632 10.983,16.279 4.702,4.646 10.28,8.313 16.409,10.789 6.13,2.475 12.691,3.71 19.302,3.633 10.984,0.038 21.668,-3.58 30.367,-10.285 l 9.039,-9.085 c 0.065,-0.063 0.134,-0.123 0.206,-0.178 6.75,-8.698 10.404,-19.4 10.383,-30.409 -0.016,-13.248 -5.29,-25.949 -14.663,-35.314 -9.374,-9.364 -22.081,-14.628 -35.332,-14.635 z m 0,94.037 c -8.722,0.001 -17.249,-2.583 -24.502,-7.427 -7.252,-4.844 -12.906,-11.729 -16.244,-19.784 -3.339,-8.056 -4.213,-16.921 -2.513,-25.474 1.701,-8.552 5.901,-16.408 12.067,-22.575 6.167,-6.166 14.025,-10.366 22.579,-12.067 8.554,-1.702 17.421,-0.829 25.48,2.507 8.058,3.337 14.945,8.988 19.791,16.238 4.846,7.25 7.432,15.774 7.432,24.494 -0.012,11.688 -4.662,22.893 -12.927,31.158 -8.266,8.265 -19.473,12.915 -31.163,12.93 z m 0,-86.797 c -8.451,-0.001 -16.713,2.503 -23.74,7.196 -7.028,4.693 -12.505,11.365 -15.74,19.17 -3.234,7.806 -4.081,16.395 -2.433,24.682 1.649,8.287 5.718,15.899 11.694,21.873 5.976,5.974 13.589,10.043 21.878,11.691 8.289,1.648 16.88,0.801 24.687,-2.433 7.808,-3.234 14.481,-8.71 19.175,-15.735 4.694,-7.026 7.199,-15.286 7.198,-23.735 -0.015,-11.322 -4.52,-22.177 -12.528,-30.184 -8.009,-8.006 -18.866,-12.51 -30.191,-12.525 z"
           fill="#3e479b"
           id="path201" />
        <path
           d="m 594.483,213.305 -1.961,-1.961 c -0.362,-0.365 -0.565,-0.857 -0.565,-1.371 0,-0.514 0.203,-1.007 0.565,-1.371 l -5.885,5.876 -0.096,0.096 c -0.181,0.179 -0.325,0.392 -0.424,0.628 -0.098,0.235 -0.149,0.488 -0.149,0.743 0,0.255 0.051,0.508 0.149,0.743 0.099,0.235 0.243,0.449 0.424,0.628 l 2.38,2.386 c 0.816,-1.337 3.114,-3.922 5.562,-6.397 z"
           fill="#4c65ba"
           id="path203" />
        <path
           d="m 592.522,208.602 c -0.362,0.364 -0.565,0.857 -0.565,1.371 0,0.514 0.203,1.006 0.565,1.371 l 1.961,1.961 c 1.945,-2.036 4.043,-3.92 6.275,-5.636 l -2.283,-2.283 c -0.331,-0.329 -0.769,-0.527 -1.235,-0.557 -0.465,-0.03 -0.926,0.109 -1.296,0.392 -0.072,0.051 -0.14,0.106 -0.206,0.165 z"
           fill="#4c65ba"
           id="path205" />
        <path
           opacity="0.43"
           d="m 592.522,208.602 c -0.362,0.364 -0.565,0.857 -0.565,1.371 0,0.514 0.203,1.006 0.565,1.371 l 1.961,1.961 c 1.945,-2.036 4.043,-3.92 6.275,-5.636 l -2.283,-2.283 c -0.331,-0.329 -0.769,-0.527 -1.235,-0.557 -0.465,-0.03 -0.926,0.109 -1.296,0.392 -0.072,0.051 -0.14,0.106 -0.206,0.165 z"
           fill="#3e479b"
           id="path207" />
        <path
           d="m 637.511,243.275 -35.662,-36.052 c -0.131,-0.123 -0.521,0.048 -1.084,0.425 -2.232,1.716 -4.33,3.6 -6.275,5.636 -2.448,2.476 -4.746,5.06 -5.534,6.377 -0.254,0.425 -0.35,0.727 -0.24,0.836 l 35.662,36.052 c 0.858,0.87 1.88,1.56 3.007,2.031 1.128,0.472 2.337,0.714 3.559,0.714 1.222,0 2.432,-0.242 3.559,-0.714 1.127,-0.471 2.15,-1.161 3.008,-2.031 1.744,-1.769 2.722,-4.153 2.722,-6.637 0,-2.484 -0.978,-4.868 -2.722,-6.637 z"
           fill="#599af2"
           id="path209" />
        <path
           opacity="0.14"
           d="m 637.511,243.275 -35.662,-36.052 c -0.48,-0.48 -4.547,3.161 -8.038,6.754 -2.97,3.065 40.079,46.234 43.707,42.572 1.743,-1.77 2.719,-4.154 2.718,-6.638 -10e-4,-2.484 -0.98,-4.868 -2.725,-6.636 z"
           fill="#3e479b"
           id="path211" />
        <path
           d="M 505.787,173.743 H 388.541 c -6.852,0 -12.406,5.552 -12.406,12.4 0,6.849 5.554,12.4 12.406,12.4 h 117.246 c 6.852,0 12.406,-5.551 12.406,-12.4 0,-6.848 -5.554,-12.4 -12.406,-12.4 z"
           fill="#ffffff"
           id="path213" />
        <path
           d="m 505.794,198.536 h -19.072 l -0.09,-24.8 h 19.162 c 1.629,0 3.242,0.321 4.747,0.945 1.504,0.623 2.872,1.537 4.023,2.689 1.152,1.151 2.065,2.519 2.688,4.024 0.622,1.505 0.942,3.117 0.941,4.746 10e-4,1.628 -0.319,3.24 -0.942,4.745 -0.622,1.504 -1.536,2.871 -2.687,4.022 -1.152,1.152 -2.519,2.065 -4.024,2.688 -1.505,0.622 -3.117,0.942 -4.746,0.941 z"
           fill="#599af2"
           id="path215" />
        <path
           d="m 500.966,190.48 c -1.075,0 -2.126,-0.319 -3.019,-0.916 -0.894,-0.598 -1.59,-1.446 -2.001,-2.44 -0.41,-0.993 -0.517,-2.085 -0.306,-3.139 0.21,-1.054 0.729,-2.021 1.49,-2.78 0.761,-0.759 1.73,-1.275 2.785,-1.483 1.054,-0.208 2.147,-0.099 3.139,0.314 0.992,0.414 1.84,1.112 2.435,2.007 0.595,0.894 0.911,1.946 0.909,3.02 -0.002,1.438 -0.574,2.816 -1.591,3.833 -1.017,1.017 -2.396,1.589 -3.834,1.591 z m 0,-9.483 c -0.669,-0.002 -1.328,0.161 -1.919,0.474 -0.591,0.314 -1.095,0.769 -1.468,1.324 -0.373,0.555 -0.602,1.194 -0.668,1.86 -0.066,0.665 0.033,1.337 0.289,1.955 0.256,0.618 0.661,1.163 1.178,1.587 0.518,0.423 1.132,0.713 1.788,0.842 0.657,0.129 1.335,0.094 1.975,-0.102 0.639,-0.196 1.22,-0.547 1.692,-1.021 0.378,-0.373 0.678,-0.817 0.883,-1.307 0.205,-0.49 0.31,-1.015 0.31,-1.546 0,-1.076 -0.428,-2.109 -1.189,-2.87 -0.762,-0.761 -1.794,-1.189 -2.871,-1.189 z"
           fill="#ffffff"
           id="path217" />
        <path
           d="m 508.599,193.421 c -0.09,0.001 -0.18,-0.017 -0.263,-0.051 -0.084,-0.034 -0.16,-0.084 -0.224,-0.148 l -4.3,-4.306 c -0.112,-0.131 -0.171,-0.3 -0.164,-0.472 0.006,-0.173 0.078,-0.336 0.2,-0.459 0.122,-0.122 0.286,-0.193 0.458,-0.2 0.173,-0.006 0.342,0.052 0.473,0.165 l 4.307,4.299 c 0.064,0.063 0.115,0.139 0.15,0.223 0.035,0.083 0.053,0.173 0.053,0.263 0,0.091 -0.018,0.181 -0.053,0.264 -0.035,0.084 -0.086,0.159 -0.15,0.223 -0.064,0.064 -0.14,0.114 -0.224,0.148 -0.083,0.034 -0.173,0.052 -0.263,0.051 z"
           fill="#ffffff"
           id="path219" />
        <path
           d="m 507.467,224.159 h -58.362 c -1.961,0 -3.843,-0.778 -5.23,-2.164 -1.388,-1.386 -2.168,-3.266 -2.17,-5.227 v -4.848 c 0.001,-0.975 -0.19,-1.94 -0.563,-2.841 -0.372,-0.901 -0.919,-1.719 -1.608,-2.409 -0.689,-0.69 -1.507,-1.237 -2.408,-1.61 -0.901,-0.373 -1.866,-0.565 -2.841,-0.565 h -26.96 c -1.968,0.001 -3.856,0.785 -5.247,2.177 -1.392,1.392 -2.173,3.28 -2.173,5.248 v 77.019 c 0,1.833 0.728,3.591 2.025,4.888 1.296,1.296 3.054,2.024 4.888,2.024 h 100.649 c 1.834,0 3.592,-0.728 4.889,-2.024 1.296,-1.297 2.024,-3.055 2.024,-4.888 V 231.07 c -10e-4,-1.832 -0.73,-3.589 -2.026,-4.885 -1.296,-1.295 -3.054,-2.024 -4.887,-2.026 z"
           fill="#f28393"
           id="path221" />
        <path
           d="m 501.034,224.159 h -58.362 c -1.961,0 -3.841,-0.779 -5.228,-2.165 -1.386,-1.386 -2.165,-3.266 -2.165,-5.226 v -4.848 c 0,-1.969 -0.783,-3.858 -2.176,-5.25 -1.392,-1.393 -3.282,-2.175 -5.251,-2.175 h -26.953 c -1.97,0 -3.859,0.782 -5.252,2.175 -1.393,1.392 -2.175,3.281 -2.175,5.25 v 77.019 c 0,0.909 0.179,1.808 0.527,2.647 0.348,0.839 0.857,1.601 1.5,2.243 0.643,0.642 1.406,1.151 2.245,1.498 0.84,0.347 1.739,0.525 2.648,0.524 h 100.642 c 1.834,0 3.592,-0.728 4.889,-2.024 1.296,-1.297 2.024,-3.055 2.024,-4.888 V 231.07 c 0,-1.833 -0.728,-3.59 -2.024,-4.887 -1.297,-1.296 -3.055,-2.024 -4.889,-2.024 z"
           fill="#f28393"
           id="path223" />
        <path
           opacity="0.12"
           d="m 501.034,224.159 h -58.362 c -1.961,0 -3.841,-0.779 -5.228,-2.165 -1.386,-1.386 -2.165,-3.266 -2.165,-5.226 v -4.848 c 0,-1.969 -0.783,-3.858 -2.176,-5.25 -1.392,-1.393 -3.282,-2.175 -5.251,-2.175 h -26.953 c -1.97,0 -3.859,0.782 -5.252,2.175 -1.393,1.392 -2.175,3.281 -2.175,5.25 v 77.019 c 0,0.909 0.179,1.808 0.527,2.647 0.348,0.839 0.857,1.601 1.5,2.243 0.643,0.642 1.406,1.151 2.245,1.498 0.84,0.347 1.739,0.525 2.648,0.524 h 100.642 c 1.834,0 3.592,-0.728 4.889,-2.024 1.296,-1.297 2.024,-3.055 2.024,-4.888 V 231.07 c 0,-1.833 -0.728,-3.59 -2.024,-4.887 -1.297,-1.296 -3.055,-2.024 -4.889,-2.024 z"
           fill="#ffffff"
           id="path225" />
        <path
           opacity="0.12"
           d="m 486.235,224.159 h -50.332 c -3.525,0 -6.378,-3.312 -6.378,-7.391 v -4.848 c 0,-4.114 -2.867,-7.425 -6.406,-7.425 h -23.242 c -3.539,0 -6.405,3.325 -6.405,7.425 v 77.019 c 0,3.82 2.674,6.912 5.966,6.912 h 86.797 c 3.292,0 5.959,-3.092 5.959,-6.912 V 231.07 c 0,-3.812 -2.667,-6.911 -5.959,-6.911 z"
           fill="#ffffff"
           id="path227" />
        <path
           d="m 398.869,231.859 c -0.182,0 -0.356,-0.073 -0.485,-0.201 -0.128,-0.129 -0.201,-0.303 -0.201,-0.485 v -16.826 c 0.002,-1.252 0.501,-2.453 1.386,-3.338 0.886,-0.886 2.087,-1.384 3.34,-1.386 h 19.888 c 0.182,0 0.356,0.072 0.485,0.201 0.129,0.128 0.201,0.303 0.201,0.485 0,0.182 -0.072,0.356 -0.201,0.485 -0.129,0.128 -0.303,0.2 -0.485,0.2 h -19.888 c -0.889,0.002 -1.741,0.356 -2.37,0.984 -0.628,0.629 -0.982,1.481 -0.984,2.369 v 16.826 c 0,0.182 -0.072,0.356 -0.201,0.485 -0.129,0.128 -0.303,0.201 -0.485,0.201 z"
           fill="#ffffff"
           id="path229" />
      </g>
    </g>
  </g>
</svg>
