<svg width="334" height="334" viewBox="0 0 334 334" fill="none" xmlns="http://www.w3.org/2000/svg">
    <path d="M57.0805 279.224C116.372 309.538 212.504 309.538 271.789 279.224C331.074 248.91 331.081 199.732 271.789 169.452C212.497 139.171 116.372 139.138 57.0805 169.452C-2.21117 199.765 -2.20448 248.917 57.0805 279.224Z" fill="#F5F5F5"/>
    <path d="M250.988 230.801C254.241 232.678 260.627 232.03 265.249 229.358L291.916 213.867C296.545 211.195 297.654 207.508 294.401 205.624C291.148 203.74 284.768 204.408 280.139 207.08L253.486 222.584C248.857 225.236 247.741 228.924 250.988 230.801Z" fill="#EBEBEB"/>
    <path d="M90.3871 245.089L63.2529 229.425L90.3871 213.76V245.089Z" fill="#EBEBEB"/>
    <path d="M167.08 254.461L123.346 229.197L167.087 203.98L167.08 254.461Z" fill="#EBEBEB"/>
    <path d="M53.6805 208.463C53.7606 202.117 49.3251 188.91 42.8388 180.594C36.3525 172.277 26.052 166.125 18.704 168.55C11.8236 170.814 12.4582 179.806 20.708 185.864C28.9578 191.923 41.3492 199.552 44.8829 209.912L52.3979 222.604L53.6805 208.463Z" fill="#4822CC"/>
    <path opacity="0.1" d="M53.6805 208.463C53.7606 202.117 49.3251 188.91 42.8388 180.594C36.3525 172.277 26.052 166.125 18.704 168.55C11.8236 170.814 12.4582 179.806 20.708 185.864C28.9578 191.923 41.3492 199.552 44.8829 209.912L52.3979 222.604L53.6805 208.463Z" fill="black"/>
    <path d="M54.048 217.153C53.9466 217.145 53.851 217.102 53.776 217.034C53.7011 216.965 53.6511 216.873 53.6338 216.773C49.6258 195.056 32.3246 177.234 21.8837 173.219C21.8207 173.202 21.7619 173.172 21.7112 173.13C21.6605 173.089 21.6191 173.037 21.5895 172.979C21.56 172.921 21.543 172.857 21.5397 172.792C21.5363 172.726 21.5468 172.661 21.5702 172.6C21.5937 172.539 21.6297 172.484 21.6759 172.437C21.7222 172.391 21.7776 172.355 21.8386 172.332C21.8996 172.308 21.9649 172.298 22.0302 172.301C22.0955 172.304 22.1594 172.321 22.2177 172.351C32.859 176.445 50.4942 194.562 54.5423 216.606C54.5539 216.665 54.5536 216.727 54.5414 216.786C54.5292 216.846 54.5053 216.902 54.4712 216.953C54.437 217.003 54.3933 217.046 54.3424 217.079C54.2915 217.113 54.2346 217.136 54.1749 217.147L54.048 217.153Z" fill="white"/>
    <path d="M50.6478 230.981C49.6725 227.401 45.384 221.462 38.3967 216.512C30.6612 211.041 20.8283 208.449 18.6038 204.234C15.9318 199.171 20.2271 194.468 28.223 195.55C36.219 196.633 50.1668 207.748 52.2243 224.221L50.6478 230.981Z" fill="#4822CC"/>
    <path d="M52.2443 227.253C52.1551 227.246 52.0699 227.213 51.9989 227.159C51.9278 227.104 51.8739 227.03 51.8435 226.946C45.424 208.302 31.3426 201.616 24.7962 200.687C24.6748 200.67 24.5651 200.606 24.4912 200.508C24.4173 200.411 24.3853 200.287 24.4021 200.166C24.4189 200.045 24.4833 199.935 24.581 199.861C24.6787 199.787 24.8018 199.755 24.9231 199.772C32.1642 200.801 46.1722 207.614 52.7253 226.639C52.764 226.756 52.7557 226.883 52.7021 226.994C52.6485 227.105 52.5538 227.191 52.438 227.233C52.3754 227.253 52.3096 227.26 52.2443 227.253Z" fill="white"/>
    <path d="M290.533 190.38C290.533 190.38 291.422 177.02 299.304 167.067C307.186 157.114 306.705 153.039 301.268 151.035C295.83 149.031 283.232 161.021 286.011 177.02C288.79 193.019 290.533 190.38 290.533 190.38Z" fill="#4822CC"/>
    <path opacity="0.1" d="M290.533 190.38C290.533 190.38 291.422 177.02 299.304 167.067C307.186 157.114 306.705 153.039 301.268 151.035C295.83 149.031 283.232 161.021 286.011 177.02C288.79 193.019 290.533 190.38 290.533 190.38Z" fill="black"/>
    <path d="M288.122 182.751C288.043 182.752 287.967 182.722 287.909 182.669C287.85 182.616 287.814 182.543 287.808 182.464C286.893 167.728 297.293 155.637 301.168 152.898C301.2 152.874 301.237 152.857 301.277 152.848C301.316 152.838 301.357 152.837 301.397 152.844C301.437 152.851 301.475 152.866 301.509 152.888C301.543 152.91 301.573 152.938 301.595 152.972C301.642 153.039 301.661 153.123 301.647 153.204C301.634 153.285 301.589 153.358 301.522 153.406C297.701 156.078 287.494 167.948 288.402 182.424C288.406 182.505 288.378 182.584 288.325 182.645C288.271 182.707 288.196 182.744 288.115 182.751H288.122Z" fill="white"/>
    <path d="M288.389 201.442C291.939 202.602 295.575 203.478 299.264 204.061C305.369 205.022 308.068 202.103 308.068 202.103C308.068 202.103 305.663 196.379 302.196 194.755C305.948 195.598 309.529 197.068 312.791 199.104C312.791 199.104 316.518 199.164 318.001 193.473C318.001 193.473 315.797 190.046 308.382 188.196C308.382 188.196 312.891 187.06 319.391 188.717C319.878 188.91 321.956 181.556 322.584 178.162C323.212 174.769 321.849 174.822 319.204 174.094C316.558 173.366 307.788 171.422 306.131 172.872C304.474 174.321 303.633 179.304 303.633 179.304C302.976 177.264 302.891 175.084 303.385 172.999C303.385 172.999 301.007 172.07 297.307 173.146C294.287 174.021 294.14 176.078 294.274 178.403C294.453 180.422 294.902 182.408 295.61 184.308C295.61 184.308 293.252 181.288 293.178 174.735C293.178 174.735 286.993 177.808 285.937 183.954C285.323 187.287 284.508 197.06 288.389 201.442Z" fill="#4822CC"/>
    <path d="M289.551 200.253C289.616 200.253 289.68 200.234 289.735 200.2C289.791 200.166 289.836 200.117 289.865 200.059C294.788 189.819 313.112 177.922 319.671 176.646C319.716 176.638 319.758 176.621 319.796 176.597C319.834 176.572 319.867 176.54 319.892 176.503C319.918 176.466 319.935 176.424 319.945 176.379C319.954 176.335 319.954 176.289 319.945 176.245C319.926 176.156 319.873 176.077 319.797 176.026C319.721 175.975 319.628 175.955 319.538 175.971C312.858 177.274 294.247 189.331 289.244 199.759C289.205 199.841 289.199 199.936 289.229 200.022C289.259 200.108 289.322 200.179 289.404 200.22C289.451 200.24 289.5 200.251 289.551 200.253Z" fill="white"/>
    <path d="M51.2889 235.71C50.5341 235.71 50.0798 235.089 50.0798 234.04V121.676L187.708 42.231V154.141C187.66 155.075 187.394 155.985 186.93 156.798C186.465 157.61 185.817 158.302 185.036 158.817L52.3844 235.37C52.0553 235.577 51.6776 235.695 51.2889 235.71Z" fill="#FAFAFA"/>
    <path d="M187.294 42.9058V154.141C187.238 155.008 186.983 155.85 186.548 156.602C186.114 157.354 185.512 157.995 184.789 158.477L52.1908 235.029C51.9208 235.204 51.61 235.305 51.289 235.323C50.5475 235.323 50.4674 234.421 50.4674 234.041V121.904L187.294 42.9058ZM188.075 41.5698L49.6858 121.449V234.041C49.6858 235.377 50.3538 236.105 51.289 236.105C51.7458 236.088 52.1902 235.952 52.5782 235.711L185.183 159.151C186.025 158.602 186.725 157.862 187.228 156.992C187.73 156.121 188.02 155.145 188.075 154.141V41.5498V41.5698Z" fill="#E0E0E0"/>
    <path d="M49.6924 121.449V140.253L188.075 60.354V41.5498L49.6924 121.449Z" fill="#4822CC"/>
    <path d="M60.5408 122.451V125.123C60.5408 125.671 60.9349 125.898 61.4092 125.624L103.954 101.062V96.3857L61.4092 120.948C61.1579 121.114 60.9486 121.336 60.7979 121.597C60.6472 121.858 60.5592 122.15 60.5408 122.451Z" fill="#FAFAFA"/>
    <path d="M108.517 93.7539C108.998 93.4734 109.385 93.7005 109.385 94.2549V96.9269C109.368 97.2279 109.28 97.5206 109.129 97.7815C108.978 98.0425 108.769 98.2646 108.517 98.4299L103.954 101.062V96.3859L108.517 93.7539Z" fill="#455A64"/>
    <path d="M49.6858 115.39C49.7406 114.387 50.0311 113.41 50.5336 112.54C51.0361 111.67 51.7366 110.93 52.5782 110.38L185.183 33.8209C186.779 32.8991 188.075 33.6473 188.075 35.4909V41.5497L49.6858 121.449V115.39Z" fill="#455A64"/>
    <path d="M172.691 44.1816C172.3 44.44 171.975 44.787 171.743 45.1944C171.511 45.6017 171.378 46.058 171.355 46.5262C171.355 47.3946 171.963 47.742 172.691 47.3145C173.082 47.0545 173.407 46.7063 173.639 46.2979C173.871 45.8895 174.004 45.4323 174.027 44.9631C174.054 44.088 173.446 43.7474 172.691 44.1816Z" fill="#4822CC"/>
    <path d="M177.02 41.6967C176.629 41.9552 176.304 42.3022 176.072 42.7095C175.84 43.1168 175.707 43.5731 175.684 44.0414C175.684 44.9098 176.292 45.2571 177.02 44.8296C177.41 44.5689 177.735 44.2205 177.967 43.8123C178.198 43.404 178.332 42.9472 178.356 42.4783C178.356 41.6099 177.741 41.2625 177.02 41.6967Z" fill="#4822CC"/>
    <path d="M181.288 39.2116C180.897 39.4701 180.572 39.817 180.34 40.2244C180.108 40.6317 179.975 41.088 179.952 41.5563C179.952 42.4247 180.56 42.772 181.288 42.3445C181.679 42.0838 182.003 41.7354 182.235 41.3272C182.467 40.9189 182.6 40.4621 182.624 39.9931C182.644 39.1247 182.037 38.7774 181.288 39.2116Z" fill="#4822CC"/>
    <g opacity="0.1">
        <path d="M144.656 72.5918C143.793 73.1562 143.075 73.9161 142.561 74.8098C142.047 75.7035 141.751 76.7058 141.696 77.7354C141.696 79.6258 143.032 80.4074 144.656 79.4455C145.519 78.8832 146.238 78.1248 146.754 77.2322C147.269 76.3395 147.566 75.3378 147.621 74.3085C147.628 72.4181 146.292 71.6499 144.656 72.5918Z" fill="black"/>
        <path d="M131.095 80.4274C130.231 80.9896 129.512 81.748 128.997 82.6406C128.482 83.5333 128.184 84.535 128.129 85.5643C128.129 87.4547 129.465 88.2363 131.095 87.281C131.958 86.7166 132.675 85.9567 133.19 85.063C133.704 84.1693 134 83.167 134.054 82.1374C134.054 80.247 132.732 79.4922 131.095 80.4274Z" fill="black"/>
        <path d="M158.222 64.796C157.36 65.3591 156.642 66.1177 156.128 67.0103C155.614 67.9029 155.317 68.9043 155.263 69.9329C155.263 71.8234 156.599 72.6049 158.222 71.643C159.087 71.0811 159.806 70.3229 160.321 69.4302C160.837 68.5374 161.134 67.5355 161.188 66.5061C161.188 64.5823 159.866 63.8141 158.222 64.796Z" fill="black"/>
        <path d="M171.796 56.9137C170.932 57.476 170.213 58.2343 169.698 59.127C169.183 60.0196 168.885 61.0213 168.83 62.0506C168.83 63.9411 170.166 64.7226 171.796 63.7607C172.66 63.1984 173.379 62.4401 173.894 61.5474C174.41 60.6548 174.707 59.6531 174.762 58.6238C174.762 56.7333 173.433 55.9651 171.796 56.9137Z" fill="black"/>
    </g>
    <path d="M63.4601 141.716L95.6644 123.119C97.2609 122.197 98.5568 122.946 98.5568 124.789V155.711C98.5019 156.715 98.2115 157.691 97.709 158.561C97.2065 159.432 96.506 160.172 95.6644 160.721L63.4601 179.311C61.8635 180.233 60.5676 179.485 60.5676 177.641V146.726C60.6225 145.723 60.9129 144.746 61.4154 143.876C61.9179 143.006 62.6184 142.266 63.4601 141.716Z" fill="#E0E0E0"/>
    <path d="M109.552 115.083L177.02 76.1522C178.616 75.2237 179.912 75.9719 179.912 77.8222V108.737C179.857 109.741 179.567 110.717 179.065 111.588C178.562 112.458 177.862 113.198 177.02 113.747L109.552 152.678C107.955 153.6 106.659 152.852 106.659 151.008V120.093C106.714 119.09 107.005 118.113 107.507 117.243C108.01 116.372 108.71 115.633 109.552 115.083Z" fill="#E0E0E0"/>
    <path d="M63.4601 188.71L114.656 159.151C116.259 158.229 117.555 158.884 117.555 160.614C117.483 161.585 117.184 162.526 116.682 163.361C116.179 164.195 115.487 164.9 114.662 165.417L63.4601 194.976C61.8635 195.898 60.5676 195.243 60.5676 193.513C60.639 192.542 60.938 191.601 61.4405 190.766C61.943 189.932 62.6349 189.228 63.4601 188.71Z" fill="#E0E0E0"/>
    <path d="M63.4601 199.679L114.656 170.12C116.259 169.198 117.555 169.852 117.555 171.583C117.483 172.554 117.184 173.495 116.682 174.329C116.179 175.164 115.487 175.868 114.662 176.386L63.4601 205.945C61.8635 206.866 60.5676 206.212 60.5676 204.482C60.639 203.51 60.938 202.569 61.4405 201.735C61.943 200.9 62.6349 200.196 63.4601 199.679Z" fill="#E0E0E0"/>
    <path d="M63.4601 210.641L114.656 181.082C116.259 180.16 117.555 180.814 117.555 182.545C117.483 183.516 117.184 184.457 116.682 185.291C116.179 186.126 115.487 186.83 114.662 187.347L63.4601 216.906C61.8635 217.828 60.5676 217.174 60.5676 215.444C60.639 214.472 60.938 213.531 61.4405 212.697C61.943 211.862 62.6349 211.158 63.4601 210.641Z" fill="#E0E0E0"/>
    <path d="M87.675 173.46C87.7093 172.858 87.8842 172.272 88.1858 171.75C88.4875 171.228 88.9074 170.784 89.4119 170.454L178.196 119.198C178.734 118.924 179.329 118.782 179.933 118.782C180.536 118.782 181.131 118.924 181.669 119.198L183.627 120.327C184.131 120.657 184.55 121.101 184.851 121.623C185.152 122.145 185.325 122.731 185.357 123.333V191.389C185.324 191.99 185.15 192.576 184.85 193.098C184.549 193.62 184.13 194.064 183.627 194.395L94.856 245.65C94.3179 245.924 93.7228 246.066 93.1192 246.066C92.5156 246.066 91.9206 245.924 91.3825 245.65L89.4252 244.521C88.9204 244.191 88.5002 243.748 88.1985 243.225C87.8968 242.703 87.7221 242.117 87.6884 241.515L87.675 173.46Z" fill="#4822CC"/>
    <path opacity="0.4" d="M88.176 171.75L93.1059 174.595L184.842 121.623C184.549 121.094 184.129 120.647 183.62 120.32L181.696 119.198C181.16 118.925 180.567 118.782 179.966 118.782C179.364 118.782 178.772 118.925 178.236 119.198L89.4118 170.454C88.8972 170.774 88.472 171.22 88.176 171.75Z" fill="white"/>
    <path opacity="0.1" d="M87.675 173.46V241.515C87.7087 242.118 87.8835 242.703 88.1852 243.225C88.4868 243.748 88.907 244.192 89.4119 244.521L91.3691 245.65C91.5195 245.738 91.6784 245.809 91.8434 245.864C92.0758 245.942 92.3151 245.998 92.5581 246.031C93.0145 246.087 93.4769 246.069 93.9275 245.978C94.043 245.957 94.1568 245.928 94.2682 245.891L94.4753 245.811C94.3434 245.867 94.2014 245.897 94.0578 245.897C93.9142 245.897 93.7721 245.867 93.6403 245.811C93.4554 245.688 93.3082 245.516 93.2151 245.314C93.1219 245.112 93.0864 244.889 93.1126 244.668V176.599C93.095 176.29 93.1717 175.982 93.3328 175.717C93.4938 175.453 93.7315 175.243 94.0144 175.116L93.1126 174.595L88.176 171.75C87.8665 172.268 87.6941 172.856 87.675 173.46Z" fill="black"/>
    <path opacity="0.2" d="M93.1126 174.595L134.228 189.959C135.65 190.489 137.21 190.519 138.651 190.044C140.092 189.57 141.329 188.619 142.157 187.347L148.757 177.234L185.176 121.436L150.073 177.615L185.357 191.422C185.327 192.036 185.141 192.631 184.816 193.152L149.979 177.788L142.284 190.046C141.432 191.408 140.117 192.417 138.581 192.888C137.045 193.359 135.39 193.261 133.921 192.611L128.456 190.2L93.6403 245.824C93.4554 245.701 93.3083 245.529 93.2151 245.327C93.122 245.126 93.0865 244.902 93.1126 244.682V243.553L128.303 190.16L93.1126 174.595Z" fill="black"/>
    <path d="M166.365 96.4659V252.711C166.365 254.555 167.661 255.303 169.258 254.381L239.451 213.854C240.293 213.304 240.993 212.564 241.496 211.694C241.999 210.824 242.289 209.847 242.344 208.844V52.5984C242.344 50.7547 241.048 50.0065 239.451 50.9284L169.258 91.4559C168.416 92.0044 167.714 92.7441 167.212 93.6146C166.709 94.4852 166.419 95.4621 166.365 96.4659Z" fill="#FAFAFA" stroke="#E0E0E0" stroke-width="1.16981" stroke-miterlimit="10"/>
    <path d="M170.434 99.3718C170.456 99.1244 170.536 98.8856 170.667 98.6746C170.798 98.4635 170.977 98.286 171.188 98.156L179.204 93.5401C179.619 93.2997 179.953 93.46 179.953 93.8942C179.931 94.1411 179.853 94.3797 179.723 94.5907C179.593 94.8018 179.415 94.9796 179.204 95.1099L171.188 99.7258C170.774 99.9663 170.434 99.806 170.434 99.3718Z" fill="#455A64"/>
    <path d="M170.434 102.485C170.456 102.237 170.535 101.998 170.666 101.787C170.798 101.576 170.976 101.398 171.188 101.269L179.204 96.6529C179.619 96.4124 179.953 96.5727 179.953 97.0003C179.932 97.2484 179.854 97.4882 179.724 97.7006C179.594 97.9129 179.416 98.0917 179.204 98.2227L171.188 102.832C170.774 103.072 170.434 102.919 170.434 102.485Z" fill="#455A64"/>
    <path d="M170.434 105.597C170.456 105.35 170.535 105.111 170.666 104.9C170.798 104.689 170.976 104.511 171.188 104.382L179.204 99.7659C179.619 99.5254 179.953 99.679 179.953 100.113C179.932 100.36 179.854 100.599 179.724 100.811C179.594 101.022 179.416 101.199 179.204 101.329L171.188 105.945C170.774 106.212 170.434 106.032 170.434 105.597Z" fill="#455A64"/>
    <path d="M236.92 65.5308V64.2816C236.92 64.2664 236.917 64.2513 236.91 64.2379C236.903 64.2245 236.892 64.2131 236.879 64.205C236.866 64.1969 236.852 64.1923 236.836 64.1917C236.821 64.191 236.806 64.1944 236.793 64.2014L235.831 64.6356C235.816 64.6431 235.799 64.6471 235.782 64.6474C235.765 64.6476 235.748 64.6441 235.733 64.6371C235.718 64.63 235.704 64.6197 235.693 64.6067C235.682 64.5937 235.675 64.5785 235.67 64.5622C235.62 64.3956 235.548 64.2363 235.457 64.0879C235.438 64.0516 235.429 64.0116 235.429 63.971C235.429 63.9304 235.438 63.8903 235.457 63.8541L236.125 62.5582C236.141 62.5253 236.144 62.4873 236.133 62.4524C236.122 62.4174 236.097 62.3882 236.065 62.3711L235.397 61.9703C235.365 61.9543 235.329 61.9501 235.294 61.9587C235.26 61.9673 235.23 61.988 235.21 62.0171L234.408 63.2195C234.384 63.2517 234.353 63.2777 234.317 63.2951C234.281 63.3126 234.241 63.321 234.201 63.3197C234.026 63.3182 233.851 63.3362 233.68 63.3731C233.663 63.3782 233.646 63.3795 233.629 63.377C233.612 63.3744 233.596 63.3681 233.582 63.3585C233.568 63.3489 233.556 63.3362 233.548 63.3213C233.539 63.3065 233.534 63.29 233.533 63.2729L233.426 62.2242C233.426 62.1507 233.359 62.1173 233.299 62.1574L232.217 62.7786C232.183 62.801 232.154 62.8305 232.132 62.8651C232.11 62.8996 232.096 62.9385 232.09 62.979L231.983 64.1814C231.969 64.2667 231.929 64.3458 231.87 64.4085C231.653 64.6159 231.452 64.8392 231.268 65.0765C231.243 65.1065 231.209 65.1282 231.171 65.1389C231.132 65.1496 231.092 65.1488 231.055 65.1366L230.387 64.8962C230.351 64.8848 230.312 64.8859 230.277 64.8992C230.242 64.9126 230.212 64.9374 230.193 64.9696L229.398 66.3457C229.382 66.3784 229.376 66.4153 229.382 66.4513C229.388 66.4873 229.405 66.5204 229.431 66.5461L229.992 67.0271C230.02 67.0545 230.039 67.0889 230.049 67.1265C230.058 67.1642 230.057 67.2037 230.046 67.2408C229.943 67.5156 229.858 67.7967 229.792 68.0825C229.77 68.1635 229.723 68.2357 229.658 68.2896L228.67 68.9576C228.637 68.9831 228.61 69.0154 228.59 69.0522C228.57 69.0891 228.559 69.1297 228.556 69.1714V70.4138C228.553 70.4298 228.555 70.4464 228.561 70.4614C228.567 70.4765 228.578 70.4892 228.592 70.4979C228.606 70.5066 228.622 70.5109 228.638 70.5102C228.654 70.5095 228.67 70.5038 228.683 70.494L229.645 70.0598C229.661 70.0536 229.678 70.0507 229.695 70.0514C229.711 70.0522 229.728 70.0565 229.743 70.064C229.758 70.0716 229.772 70.0823 229.782 70.0953C229.793 70.1084 229.801 70.1236 229.805 70.14C229.856 70.3065 229.928 70.4659 230.019 70.6142C230.037 70.6505 230.047 70.6905 230.047 70.7311C230.047 70.7717 230.037 70.8118 230.019 70.848L229.351 72.1373C229.336 72.1714 229.334 72.2098 229.345 72.2455C229.356 72.2811 229.379 72.3115 229.411 72.331L230.079 72.7318C230.111 72.7478 230.147 72.752 230.182 72.7434C230.216 72.7348 230.246 72.7141 230.266 72.685L231.068 71.4826C231.092 71.4504 231.123 71.4244 231.159 71.407C231.195 71.3895 231.235 71.3811 231.275 71.3824C231.45 71.3839 231.625 71.3659 231.796 71.329C231.812 71.3239 231.83 71.3226 231.847 71.3251C231.863 71.3277 231.88 71.334 231.894 71.3436C231.908 71.3532 231.92 71.3659 231.928 71.3808C231.937 71.3956 231.942 71.4121 231.943 71.4292L232.05 72.478C232.05 72.5514 232.11 72.5848 232.177 72.5448L233.259 71.9235C233.293 71.8994 233.322 71.8686 233.344 71.833C233.366 71.7974 233.38 71.7578 233.386 71.7164L233.493 70.514C233.506 70.4302 233.546 70.3529 233.606 70.2936C233.823 70.0862 234.024 69.8629 234.208 69.6256C234.233 69.5956 234.267 69.5739 234.305 69.5632C234.343 69.5525 234.384 69.5533 234.421 69.5655L235.089 69.806C235.125 69.8173 235.164 69.8162 235.199 69.8029C235.234 69.7895 235.264 69.7647 235.283 69.7325L236.078 68.3564C236.095 68.3223 236.1 68.2835 236.093 68.2461C236.086 68.2086 236.066 68.1746 236.038 68.1493L235.483 67.675C235.456 67.6476 235.436 67.6132 235.427 67.5756C235.418 67.5379 235.419 67.4984 235.43 67.4613C235.533 67.1866 235.618 66.9054 235.684 66.6196C235.703 66.537 235.75 66.4637 235.817 66.4125L236.806 65.7445C236.838 65.7184 236.865 65.686 236.885 65.6493C236.904 65.6125 236.916 65.5722 236.92 65.5308ZM232.691 69.472C231.682 70.0598 230.868 69.5855 230.868 68.4232C230.899 67.7887 231.08 67.1707 231.398 66.6201C231.715 66.0696 232.158 65.6023 232.691 65.2569C233.7 64.6757 234.515 65.15 234.515 66.3123C234.482 66.9457 234.3 67.5624 233.983 68.1116C233.666 68.6609 233.223 69.1271 232.691 69.472Z" fill="#37474F"/>
    <path d="M204.355 96.3256C212.558 91.5895 219.204 95.4305 219.204 104.903C219.204 114.375 212.558 125.885 204.355 130.621C196.152 135.357 189.505 131.516 189.505 122.05C189.505 112.585 196.152 101.062 204.355 96.3256Z" fill="#455A64"/>
    <path d="M204.254 103.781C206.926 102.244 209.071 103.487 209.071 106.559C208.979 108.23 208.495 109.855 207.659 111.303C206.822 112.752 205.656 113.982 204.254 114.896C201.582 116.432 199.432 115.19 199.432 112.117C199.523 110.446 200.008 108.82 200.846 107.372C201.684 105.923 202.852 104.693 204.254 103.781Z" fill="#4822CC"/>
    <path d="M213.76 120.16C213.76 115.116 210.213 113.066 205.844 115.591L203.072 117.167C198.703 119.692 195.156 125.851 195.156 130.881V132.264C195.981 132.528 196.842 132.661 197.708 132.658C200.052 132.578 202.334 131.888 204.328 130.654C208.143 128.31 211.37 125.122 213.76 121.335V120.16Z" fill="#4822CC"/>
    <path d="M190.955 144.709L217.768 129.231C218.563 128.77 219.211 129.098 219.211 129.966C219.175 130.451 219.026 130.92 218.775 131.337C218.524 131.753 218.179 132.105 217.768 132.364L190.961 147.842C190.16 148.309 189.512 147.975 189.512 147.114C189.546 146.628 189.695 146.157 189.946 145.739C190.196 145.321 190.542 144.968 190.955 144.709Z" fill="#4822CC"/>
    <path d="M188.076 155.784L220.634 136.94C221.435 136.479 222.083 136.806 222.083 137.675C222.047 138.16 221.897 138.63 221.645 139.047C221.393 139.464 221.047 139.815 220.634 140.073L188.076 158.917C187.274 159.378 186.626 159.051 186.626 158.182C186.662 157.697 186.812 157.227 187.064 156.81C187.316 156.394 187.663 156.042 188.076 155.784Z" fill="#455A64"/>
    <path d="M221.502 152.13L230.62 146.867C231.101 146.593 231.489 146.72 231.489 147.154C231.453 147.42 231.355 147.674 231.205 147.897C231.054 148.119 230.854 148.304 230.62 148.436L221.502 153.7C221.028 153.974 220.634 153.847 220.634 153.42C220.67 153.153 220.768 152.898 220.918 152.674C221.069 152.451 221.269 152.265 221.502 152.13Z" fill="#37474F"/>
    <path d="M175.951 175.303L189.345 167.575C190.14 167.114 190.787 167.488 190.787 168.41V177.601C190.76 178.103 190.615 178.59 190.364 179.026C190.114 179.461 189.764 179.831 189.345 180.106L175.951 187.835C175.156 188.296 174.508 187.922 174.508 187V177.808C174.536 177.307 174.681 176.819 174.931 176.384C175.182 175.949 175.531 175.579 175.951 175.303Z" fill="#4822CC"/>
    <path d="M178.089 176.586L187.207 171.322C187.688 171.048 188.075 171.175 188.075 171.602C188.04 171.87 187.944 172.125 187.793 172.349C187.642 172.573 187.442 172.759 187.207 172.892L178.089 178.156C177.608 178.429 177.22 178.302 177.22 177.875C177.256 177.608 177.352 177.352 177.503 177.128C177.654 176.905 177.854 176.719 178.089 176.586Z" fill="#FAFAFA"/>
    <path d="M177.22 181.222V183.894C177.22 184.448 177.608 184.669 178.089 184.395L187.207 179.131C187.46 178.966 187.67 178.744 187.821 178.483C187.972 178.222 188.059 177.929 188.075 177.628V174.956C188.075 174.401 187.688 174.181 187.207 174.455L178.089 179.692C177.833 179.86 177.621 180.086 177.47 180.352C177.319 180.618 177.234 180.916 177.22 181.222Z" fill="#FAFAFA"/>
    <path d="M197.661 162.772L211.021 155.043C211.823 154.582 212.471 154.956 212.471 155.878V165.069C212.444 165.572 212.298 166.06 212.046 166.496C211.794 166.931 211.443 167.301 211.021 167.574L197.661 175.303C196.86 175.764 196.218 175.39 196.218 174.468V165.277C196.244 164.775 196.389 164.286 196.639 163.851C196.89 163.416 197.24 163.046 197.661 162.772Z" fill="#4822CC"/>
    <path d="M199.799 164.054L208.917 158.79C209.391 158.517 209.779 158.643 209.779 159.071C209.743 159.337 209.647 159.592 209.498 159.816C209.348 160.039 209.15 160.226 208.917 160.36L199.799 165.624C199.318 165.898 198.93 165.771 198.93 165.337C198.967 165.071 199.064 164.816 199.214 164.594C199.365 164.371 199.565 164.187 199.799 164.054Z" fill="#FAFAFA"/>
    <path d="M198.93 168.69V171.362C198.93 171.916 199.318 172.137 199.799 171.863L208.917 166.599C209.168 166.433 209.376 166.211 209.526 165.95C209.676 165.689 209.762 165.396 209.779 165.096V162.424C209.779 161.87 209.385 161.649 208.91 161.923L199.792 167.187C199.541 167.352 199.332 167.574 199.182 167.836C199.032 168.097 198.946 168.389 198.93 168.69Z" fill="#FAFAFA"/>
    <path d="M219.371 150.24L232.731 142.504C233.526 142.044 234.174 142.418 234.174 143.339V152.538C234.147 153.039 234.002 153.527 233.751 153.962C233.5 154.397 233.151 154.767 232.731 155.043L219.371 162.772C218.57 163.233 217.922 162.858 217.922 161.937V152.745C217.949 152.243 218.095 151.754 218.346 151.319C218.598 150.883 218.949 150.514 219.371 150.24Z" fill="#4822CC"/>
    <path d="M221.502 151.523L230.62 146.292C231.101 146.012 231.489 146.138 231.489 146.573C231.454 146.839 231.358 147.094 231.207 147.317C231.056 147.54 230.855 147.724 230.62 147.855L221.502 153.119C221.028 153.4 220.634 153.273 220.634 152.838C220.665 152.566 220.76 152.305 220.911 152.077C221.062 151.848 221.264 151.658 221.502 151.523Z" fill="#FAFAFA"/>
    <path d="M220.634 156.158V158.83C220.634 159.378 221.028 159.605 221.502 159.331L230.62 154.061C230.874 153.897 231.084 153.675 231.235 153.414C231.386 153.152 231.473 152.859 231.489 152.558V149.886C231.489 149.331 231.101 149.104 230.62 149.385L221.502 154.649C221.249 154.814 221.038 155.037 220.887 155.3C220.736 155.562 220.65 155.856 220.634 156.158Z" fill="#FAFAFA"/>
    <path d="M177.401 196.392L231.308 165.27C232.912 164.348 234.201 165.003 234.201 166.733C234.131 167.705 233.833 168.646 233.33 169.481C232.827 170.315 232.135 171.019 231.308 171.536L177.401 202.658C175.804 203.58 174.508 202.925 174.508 201.195C174.58 200.223 174.879 199.283 175.381 198.448C175.884 197.614 176.576 196.909 177.401 196.392Z" fill="#E0E0E0"/>
    <path d="M177.401 208.931L231.308 177.808C232.912 176.887 234.201 177.541 234.201 179.271C234.131 180.243 233.833 181.185 233.33 182.019C232.827 182.854 232.135 183.558 231.308 184.074L177.401 215.203C175.804 216.125 174.508 215.47 174.508 213.733C174.58 212.762 174.879 211.821 175.381 210.987C175.884 210.152 176.576 209.448 177.401 208.931Z" fill="#E0E0E0"/>
    <path d="M194.949 214.468L213.76 203.607C214.562 203.146 215.21 203.52 215.21 204.442V210.5C215.182 211.002 215.037 211.491 214.785 211.926C214.533 212.362 214.182 212.731 213.76 213.005L194.949 223.867C194.148 224.328 193.5 223.954 193.5 223.032V216.973C193.527 216.471 193.672 215.982 193.924 215.547C194.176 215.112 194.527 214.742 194.949 214.468Z" fill="#4822CC"/>
    <path d="M178.576 197.32C178.185 197.58 177.86 197.929 177.628 198.337C177.396 198.745 177.263 199.203 177.24 199.672C177.24 200.534 177.848 200.888 178.576 200.453C178.968 200.193 179.292 199.845 179.525 199.437C179.757 199.028 179.889 198.571 179.912 198.102C179.933 197.24 179.325 196.886 178.576 197.32Z" fill="#FAFAFA"/>
    <path d="M182.878 194.836C182.486 195.095 182.161 195.443 181.929 195.851C181.697 196.26 181.564 196.718 181.542 197.187C181.542 198.049 182.144 198.403 182.878 197.969C183.27 197.709 183.594 197.36 183.827 196.952C184.059 196.544 184.191 196.086 184.214 195.617C184.235 194.755 183.627 194.388 182.878 194.836Z" fill="#FAFAFA"/>
    <path d="M187.174 192.384C186.782 192.644 186.458 192.992 186.226 193.401C185.994 193.809 185.861 194.266 185.838 194.735C185.838 195.597 186.446 195.951 187.174 195.517C187.565 195.257 187.89 194.909 188.122 194.5C188.354 194.092 188.487 193.635 188.51 193.166C188.53 192.271 187.922 191.916 187.174 192.384Z" fill="#FAFAFA"/>
    <path d="M191.476 189.866C191.084 190.125 190.759 190.473 190.527 190.882C190.295 191.29 190.162 191.748 190.14 192.217C190.14 193.079 190.748 193.433 191.476 192.999C191.867 192.739 192.192 192.39 192.424 191.982C192.656 191.574 192.789 191.116 192.812 190.647C192.832 189.785 192.224 189.431 191.476 189.866Z" fill="#FAFAFA"/>
    <path d="M195.771 187.381C195.38 187.641 195.055 187.989 194.823 188.397C194.591 188.806 194.458 189.263 194.435 189.732C194.435 190.594 195.043 190.948 195.771 190.514C196.162 190.254 196.487 189.906 196.719 189.497C196.951 189.089 197.084 188.632 197.107 188.162C197.127 187.301 196.519 186.947 195.771 187.381Z" fill="#FAFAFA"/>
    <path d="M200.066 184.896C199.675 185.156 199.35 185.504 199.118 185.912C198.886 186.321 198.753 186.778 198.73 187.247C198.73 188.109 199.338 188.463 200.066 188.029C200.458 187.769 200.783 187.421 201.016 187.013C201.248 186.604 201.38 186.147 201.402 185.677C201.422 184.816 200.821 184.461 200.066 184.896Z" fill="#FAFAFA"/>
    <path d="M204.368 182.411C203.977 182.671 203.652 183.019 203.42 183.427C203.188 183.836 203.055 184.293 203.032 184.762C203.032 185.624 203.64 185.978 204.368 185.544C204.759 185.284 205.084 184.936 205.316 184.527C205.548 184.119 205.681 183.662 205.704 183.192C205.744 182.364 205.116 181.977 204.368 182.411Z" fill="#FAFAFA"/>
    <path d="M178.576 209.866C178.186 210.126 177.862 210.475 177.63 210.883C177.398 211.291 177.265 211.748 177.24 212.217C177.24 213.085 177.848 213.433 178.576 212.999C178.968 212.74 179.292 212.393 179.524 211.986C179.757 211.579 179.889 211.122 179.912 210.654C179.933 209.786 179.325 209.438 178.576 209.866Z" fill="#FAFAFA"/>
    <path d="M182.878 207.381C182.487 207.64 182.162 207.988 181.93 208.397C181.698 208.805 181.565 209.263 181.542 209.732C181.542 210.6 182.144 210.948 182.878 210.514C183.27 210.255 183.594 209.908 183.826 209.501C184.059 209.093 184.191 208.637 184.214 208.169C184.235 207.3 183.627 206.953 182.878 207.381Z" fill="#FAFAFA"/>
    <path d="M187.174 204.896C186.783 205.156 186.459 205.505 186.227 205.913C185.995 206.321 185.862 206.778 185.838 207.247C185.838 208.116 186.446 208.463 187.174 208.029C187.565 207.77 187.89 207.423 188.122 207.016C188.354 206.609 188.487 206.152 188.51 205.684C188.53 204.816 187.922 204.462 187.174 204.896Z" fill="#FAFAFA"/>
    <path d="M191.476 202.404C191.084 202.664 190.76 203.012 190.528 203.421C190.296 203.829 190.163 204.286 190.14 204.755C190.14 205.624 190.748 205.971 191.476 205.537C191.867 205.279 192.192 204.932 192.424 204.524C192.656 204.117 192.789 203.661 192.812 203.192C192.832 202.331 192.224 201.977 191.476 202.404Z" fill="#FAFAFA"/>
    <path d="M195.771 199.926C195.38 200.186 195.055 200.534 194.823 200.942C194.591 201.351 194.458 201.808 194.435 202.277C194.435 203.146 195.043 203.493 195.771 203.059C196.162 202.8 196.487 202.453 196.719 202.046C196.951 201.639 197.084 201.182 197.107 200.714C197.127 199.846 196.519 199.492 195.771 199.926Z" fill="#FAFAFA"/>
    <path d="M200.066 197.441C199.675 197.701 199.35 198.049 199.118 198.457C198.886 198.866 198.753 199.323 198.73 199.792C198.73 200.661 199.338 201.008 200.066 200.574C200.459 200.315 200.785 199.968 201.017 199.559C201.249 199.15 201.381 198.692 201.402 198.222C201.422 197.361 200.821 197.007 200.066 197.441Z" fill="#FAFAFA"/>
    <path d="M204.368 194.956C203.977 195.216 203.652 195.564 203.42 195.972C203.188 196.381 203.055 196.838 203.032 197.307C203.032 198.175 203.64 198.523 204.368 198.089C204.76 197.829 205.085 197.481 205.317 197.072C205.549 196.664 205.682 196.207 205.704 195.737C205.744 194.876 205.116 194.522 204.368 194.956Z" fill="#FAFAFA"/>
    <path d="M264.655 223.199C262.346 223.215 260.075 222.615 258.075 221.462C253.259 218.676 250.5 212.865 250.5 205.497C250.5 192.551 258.73 177.661 269.204 171.596C274.862 168.329 280.48 167.975 285.029 170.6C289.839 173.379 292.604 179.197 292.604 186.559C292.604 199.505 284.374 214.401 273.867 220.467C271.088 222.167 267.912 223.109 264.655 223.199ZM278.456 178.189C276.83 178.304 275.258 178.82 273.88 179.692C266.265 184.067 259.852 195.897 259.852 205.497C259.852 209.384 260.941 212.337 262.764 213.386C264.842 214.588 267.734 213.279 269.264 212.39C276.899 207.988 283.339 196.158 283.339 186.559C283.339 182.671 282.25 179.725 280.426 178.67C279.825 178.334 279.144 178.167 278.456 178.189Z" fill="#455A64"/>
    <path d="M284.975 188.63C284.975 181.355 280.393 178.67 280.393 178.67C282.217 179.725 283.305 182.678 283.305 186.559C283.305 196.158 276.866 207.988 269.231 212.391C267.701 213.279 264.815 214.588 262.731 213.386C262.731 213.386 266.599 215.791 271.943 212.872C279.678 208.656 284.975 198.229 284.975 188.63Z" fill="#37474F"/>
    <path d="M277.628 97.7216C277.581 96.4744 277.053 95.2938 276.154 94.4279C275.255 93.5619 274.056 93.0781 272.808 93.0781C271.56 93.0781 270.36 93.5619 269.462 94.4279C268.563 95.2938 268.035 96.4744 267.988 97.7216V174.348C268.023 174.777 268.172 175.19 268.42 175.542C268.667 175.895 269.005 176.174 269.398 176.352C270.454 176.886 271.621 177.164 272.805 177.164C273.988 177.164 275.155 176.886 276.211 176.352C276.606 176.176 276.945 175.897 277.194 175.544C277.443 175.192 277.593 174.778 277.628 174.348V97.735V97.7216Z" fill="#37474F"/>
    <path d="M273.78 114.849C273.727 113.883 273.447 112.943 272.963 112.105C272.479 111.267 271.805 110.555 270.994 110.026C270.708 109.817 270.37 109.689 270.016 109.659C269.663 109.628 269.308 109.695 268.99 109.853L257.113 116.7L256.826 116.867C256.782 116.884 256.742 116.909 256.706 116.94C256.503 117.077 256.313 117.231 256.138 117.401C255.468 118.069 255.061 118.955 254.99 119.898C254.92 120.841 255.191 121.778 255.754 122.538C256.317 123.298 257.134 123.831 258.057 124.038C258.98 124.245 259.947 124.113 260.78 123.667L261.008 123.533L272.971 116.646C273.253 116.445 273.476 116.172 273.618 115.857C273.76 115.541 273.816 115.193 273.78 114.849Z" fill="#455A64"/>
    <path d="M273.78 134.034C273.726 133.069 273.446 132.13 272.962 131.293C272.478 130.457 271.804 129.746 270.994 129.218C270.709 129.006 270.371 128.876 270.018 128.845C269.664 128.813 269.308 128.88 268.99 129.037L255.056 137.053L254.769 137.22C254.725 137.239 254.685 137.264 254.648 137.294C254.445 137.429 254.255 137.583 254.081 137.755C253.645 138.188 253.317 138.717 253.122 139.299C252.926 139.881 252.869 140.5 252.955 141.108C253.04 141.716 253.266 142.296 253.615 142.801C253.963 143.307 254.425 143.724 254.962 144.021C255.542 144.328 256.189 144.489 256.846 144.488C257.501 144.491 258.146 144.331 258.723 144.021C258.803 143.981 258.877 143.927 258.95 143.887L272.978 135.871C273.265 135.665 273.491 135.386 273.632 135.063C273.773 134.74 273.824 134.384 273.78 134.034Z" fill="#455A64"/>
</svg>
